<?xml version="1.0" encoding="UTF-8"?>
<svg version="1.1" xmlns="http://www.w3.org/2000/svg" width="512" height="513">
<path d="M0 0 C4.7982131 2.99706016 8.79038389 6.41116795 12.875 10.3125 C13.52210938 10.92351563 14.16921875 11.53453125 14.8359375 12.1640625 C16.20303423 13.4549173 17.56856721 14.74743001 18.93261719 16.04150391 C22.27539686 19.20822315 25.6388157 22.35284369 29 25.5 C30.34380096 26.76036234 31.68755103 28.02077893 33.03125 29.28125 C36.8486647 32.86007628 40.67342024 36.43097849 44.5 40 C46.35299836 41.72918617 48.20584709 43.45853243 50.05859375 45.18798828 C51.404731 46.44440562 52.7511013 47.7005733 54.09765625 48.95654297 C56.23295108 50.94893581 58.36662968 52.94304682 60.5 54.9375 C61.14646484 55.54013672 61.79292969 56.14277344 62.45898438 56.76367188 C66.17356729 60.23959765 69.80602607 63.77764301 73.36621094 67.41186523 C75.08807901 69.08561775 76.88971245 70.60767905 78.75 72.125 C83.85383909 76.46211886 85.33854871 80.44404649 86 87 C86.28055974 91.04426077 86.46625396 95.09136556 86.6484375 99.14111328 C86.70549866 100.35066681 86.76255981 101.56022034 86.8213501 102.806427 C86.97679579 106.11820089 87.12920536 109.43008623 87.28003693 112.74207163 C87.40777037 115.537483 87.53769002 118.33279104 87.66761589 121.12810123 C87.97606921 127.76446415 88.28115268 134.40097599 88.58398438 141.03759766 C88.85802047 147.04231171 89.13530494 153.04686381 89.41601562 159.05126953 C92.41922052 223.30813075 92.41922052 223.30813075 93 254 C93.8849263 253.9986908 94.7698526 253.99738159 95.68159485 253.99603271 C126.68271674 253.95760524 157.68384627 254.01762289 188.68453789 254.18390656 C196.25739002 254.22409382 203.83012772 254.25637564 211.40307617 254.27099609 C218.13236909 254.28400133 224.86143678 254.31085838 231.5906027 254.35461307 C235.11811224 254.37709881 238.64534594 254.39291774 242.17293358 254.39188385 C246.06629138 254.39100119 249.9590688 254.42117947 253.85229492 254.45410156 C255.00060791 254.4490712 256.1489209 254.44404083 257.33203125 254.43885803 C263.54014808 254.52036717 267.26872237 254.85247815 272 259 C272.58193115 259.50176758 273.1638623 260.00353516 273.76342773 260.52050781 C274.23208252 260.99327148 274.7007373 261.46603516 275.18359375 261.953125 C275.71919922 262.49066406 276.25480469 263.02820313 276.80664062 263.58203125 C277.34482422 264.13246094 277.88300781 264.68289063 278.4375 265.25 C278.97181641 265.78496094 279.50613281 266.31992187 280.05664062 266.87109375 C282.91282696 269.75813924 285.6405977 272.71478334 288.28515625 275.796875 C292.60465071 280.7837155 297.30236116 285.37247517 302 290 C311.62960685 299.48588138 311.62960685 299.48588138 315.43359375 303.93359375 C320.00706499 309.26774776 325.06309647 314.13309978 330.0625 319.0625 C342.64324345 331.46772735 342.64324345 331.46772735 347 337 C347 337.66 347 338.32 347 339 C289.58 339 232.16 339 173 339 C173 396.42 173 453.84 173 513 C167.37057992 509.62234795 167.37057992 509.62234795 164.9140625 507.14453125 C164.37523437 506.60376953 163.83640625 506.06300781 163.28125 505.50585938 C162.7346875 504.94705078 162.188125 504.38824219 161.625 503.8125 C161.08617187 503.27302734 160.54734375 502.73355469 159.9921875 502.17773438 C157.12855666 499.28342178 154.39165912 496.32204062 151.7421875 493.23046875 C147.2611417 488.05644569 142.37167873 483.30277239 137.5 478.5 C132.03831266 473.11556424 126.67929792 467.7385043 121.68945312 461.91210938 C118.62611146 458.44504407 115.30149492 455.23824789 112 452 C92.24946037 432.6278232 92.24946037 432.6278232 91.87415886 425.66547871 C91.87378183 424.73940909 91.87340481 423.81333948 91.87301636 422.85920715 C91.87019653 421.79380707 91.86737671 420.72840698 91.86447144 419.63072205 C91.86750778 417.87569115 91.86750778 417.87569115 91.87060547 416.08520508 C91.86797699 414.2350882 91.86797699 414.2350882 91.86529541 412.34759521 C91.8616375 408.950546 91.8625149 405.55355742 91.8656745 402.15651155 C91.86821916 398.562404 91.86585281 394.96829894 91.86428833 391.37419128 C91.86246411 385.29852847 91.86487051 379.22287777 91.86962891 373.1472168 C91.87439694 366.99030764 91.8745167 360.83342274 91.86962891 354.67651367 C91.8438386 321.44047486 91.84347928 288.2209888 93 255 C81.01701799 255.59796307 69.03405368 256.19627947 57.05110645 256.79493904 C50.14574567 257.13988777 43.24036404 257.48441588 36.33496857 257.82866955 C6.09935976 259.33408294 6.09935976 259.33408294 -24.13380241 260.88762856 C-26.24417825 260.9978596 -28.35457567 261.10766758 -30.46498108 261.21733093 C-36.59709022 261.5362178 -42.7289991 261.85817318 -48.8605957 262.18676758 C-53.76012716 262.44633163 -58.65994533 262.68585543 -63.56188965 262.89508057 C-65.12503286 262.96234746 -66.68797951 263.03446055 -68.25061035 263.11273193 C-76.88976049 263.52545595 -82.01011582 263.44300617 -88.61279297 257.56396484 C-90.27528963 255.98397175 -91.85958056 254.35174938 -93.4375 252.6875 C-94.57489995 251.51765853 -95.71421283 250.34967378 -96.85546875 249.18359375 C-97.3973584 248.62913574 -97.93924805 248.07467773 -98.49755859 247.50341797 C-100.91601678 245.08338782 -103.50293248 242.88406571 -106.109375 240.671875 C-109.14101727 237.99100126 -111.9324994 235.07530129 -114.7734375 232.1953125 C-117.44633174 229.55993257 -120.25368303 227.12233511 -123.1015625 224.6796875 C-125.58959026 222.47834607 -127.89194077 220.11911485 -130.21875 217.75 C-132.08389674 215.91757513 -134.01927746 214.20646865 -136 212.5 C-138.60647609 210.2544206 -141.08934521 207.95448488 -143.5 205.5 C-145.85033101 203.10722509 -148.264224 200.86808888 -150.8125 198.6875 C-155.77754003 194.3955204 -160.62886938 189.89960748 -165 185 C-165 184.34 -165 183.68 -165 183 C-142.88661552 181.82558455 -120.77318335 180.65207102 -98.65969372 179.47963715 C-88.39249104 178.93525971 -78.1253043 178.39058489 -67.8581543 177.84521484 C-58.91142349 177.36998352 -49.96466354 176.89530521 -41.01786786 176.4212966 C-36.2787225 176.17019325 -31.53959239 175.91880918 -26.80049706 175.66676331 C-22.34289019 175.42969697 -17.88524483 175.19336827 -13.42756844 174.95761299 C-11.78884302 174.87081313 -10.15013203 174.78374039 -8.51143646 174.69637871 C-6.27920254 174.57741482 -4.04691943 174.45942055 -1.81462097 174.3416748 C-0.56374789 174.27530571 0.68712519 174.20893661 1.97590351 174.14055634 C3.98231615 174.04730071 5.99142133 174 8 174 C7.95877014 173.17008136 7.91754028 172.34016272 7.87506104 171.48509502 C6.87052605 151.26096712 5.86899834 131.03669222 4.87078857 110.81225109 C4.38798374 101.03174312 3.9041734 91.25128686 3.41796875 81.47094727 C2.99403511 72.9431796 2.57201577 64.41531968 2.15226364 55.88734514 C1.93008797 51.37481508 1.70697521 46.8623359 1.48156738 42.34996605 C1.26909628 38.09596429 1.05920024 33.84184298 0.85121155 29.58761978 C0.77475628 28.03285043 0.69738977 26.47812556 0.6190033 24.92345238 C0.20047492 16.61161225 -0.11703869 8.32443273 0 0 Z " fill="#335CFF" transform="translate(165,0)"/>
</svg>
