<svg version="1.1" xmlns="http://www.w3.org/2000/svg" width="513px" height="512px" transform="rotate(0) scale(1, 1)">
<path d="M0 0 C1.2238294 -0.00445784 2.4476588 -0.00891569 3.70857394 -0.01350862 C5.0842569 -0.01341931 6.45993985 -0.01322943 7.83562279 -0.01294994 C9.28342773 -0.01624664 10.73123175 -0.01997179 12.17903459 -0.02409142 C16.17661631 -0.03414204 20.17418301 -0.03783313 24.17177558 -0.04048073 C28.47596044 -0.04437485 32.7801333 -0.05395391 37.08431053 -0.0626936 C47.48965206 -0.08248533 57.8949946 -0.09252853 68.30035025 -0.10142139 C73.19675578 -0.10580064 78.09316022 -0.11116846 82.9895649 -0.11641026 C99.26102092 -0.13342672 115.53247626 -0.14792104 131.80393982 -0.155159 C136.02953785 -0.157069 140.25513587 -0.15898931 144.48073387 -0.16094494 C146.05617596 -0.16167055 146.05617596 -0.16167055 147.66344516 -0.16241082 C164.67858392 -0.17071155 181.69365239 -0.19604734 198.70876046 -0.22852562 C216.16638891 -0.26157758 233.62398164 -0.27960615 251.08164155 -0.28280324 C260.88803231 -0.28497027 270.69432061 -0.29374697 280.50068092 -0.31926441 C288.85247506 -0.34094615 297.20414188 -0.34903438 305.55596097 -0.33929763 C309.81809547 -0.33474531 314.07996716 -0.33669296 318.34206581 -0.35605907 C322.24446766 -0.37363773 326.14641397 -0.37273646 330.0488203 -0.35716178 C331.46008206 -0.35477759 332.87137492 -0.3591513 334.28258903 -0.37099043 C343.20877687 -0.44123229 348.43745376 0.04957224 355.40198326 5.78297901 C356.19518723 6.59070004 356.19518723 6.59070004 357.00441551 7.41473866 C357.61872932 8.03250675 358.23304314 8.65027485 358.86597252 9.28676319 C359.50470802 9.94411961 360.14344353 10.60147602 360.80153465 11.27875233 C361.48293007 11.96676426 362.16432549 12.65477619 362.86636925 13.36363697 C365.03042566 15.55095198 367.18403158 17.74819372 369.3366909 19.94672108 C371.48746042 22.13279271 373.64044247 24.31661687 375.79630089 26.49767017 C377.13203191 27.85009894 378.46464927 29.20561325 379.79346275 30.56483936 C382.85839073 33.67820633 385.96506677 36.66883495 389.27834129 39.517766 C394.04232523 43.62792415 398.44298981 48.07130267 402.8679409 52.54047108 C403.74768578 53.42400257 404.62743065 54.30753407 405.53383446 55.21783924 C408.79576035 58.49394428 412.05311654 61.77457088 415.31014061 65.05554676 C418.5140635 68.28252645 421.72188206 71.50560187 424.9304409 74.72797108 C425.76087914 75.56670765 426.59131737 76.40544422 427.44692039 77.26959705 C430.98344915 80.82083071 434.52607182 84.30182888 438.33083153 87.5658617 C442.95464615 91.54294482 447.22780969 95.84956834 451.51952171 100.17938709 C452.99851 101.67136351 454.48079592 103.15999661 455.96388817 104.64789295 C459.64366477 108.34090262 463.31791718 112.0393922 466.99233055 115.7377367 C470.10964719 118.87492411 473.22910178 122.0099571 476.35130882 125.14227772 C477.79784159 126.59520016 479.24128257 128.05114388 480.68459129 129.50726795 C485.21038286 134.04977189 489.74570648 138.4411949 494.72756004 142.48383045 C496.3991909 144.13422108 496.3991909 144.13422108 499.3991909 149.13422108 C382.5791909 149.13422108 265.7591909 149.13422108 145.3991909 149.13422108 C145.3991909 268.92422108 145.3991909 388.71422108 145.3991909 512.13422108 C136.40038016 505.38511302 136.40038016 505.38511302 133.40505028 502.35126209 C132.73074974 501.6735828 132.0564492 500.99590351 131.36171532 500.29768848 C130.66251976 499.5850333 129.9633242 498.87237812 129.2429409 498.13812733 C128.4963723 497.38635715 127.7498037 496.63458698 126.9806118 495.8600359 C124.61527003 493.47702917 122.25677292 491.08740298 119.8991909 488.69672108 C117.54075264 486.31048814 115.18079475 483.92580935 112.81777 481.54411793 C111.35453695 480.06881495 109.89398132 478.59084953 108.43666649 477.1097002 C105.22086087 473.86274801 101.97567239 470.7198698 98.5085659 467.74139881 C93.59147855 463.50234822 89.05963979 458.90052003 84.4929409 454.29047108 C83.08056158 452.87230457 81.66817929 451.45414101 80.25562859 450.03614521 C77.30607067 447.07355662 74.36112778 444.10638087 71.41536522 441.14001942 C68.98041984 438.68841077 66.54444274 436.23784777 64.10585594 433.78986073 C62.28698477 431.96353679 60.47036438 430.13496747 58.65639305 428.30377674 C54.33307456 423.96334447 49.94344013 419.79860175 45.29701805 415.80719471 C42.01862205 412.91722127 38.96809817 409.80582385 35.8991909 406.69672108 C35.21921043 406.01295399 34.53922997 405.3291869 33.83864403 404.62469959 C30.96693947 401.73684334 28.10130653 398.84299032 25.2351284 395.94965076 C23.12526303 393.82156383 21.01229445 391.69659191 18.8991909 389.57172108 C18.26561668 388.92984852 17.63204247 388.28797596 16.97926903 387.62665272 C13.16318291 383.79004462 9.22699018 380.15519157 5.12584496 376.62448597 C3.0286447 374.81440484 1.00715948 372.94362716 -0.9758091 371.00922108 C-1.62291847 370.38789295 -2.27002785 369.76656483 -2.9367466 369.12640858 C-6.35575485 365.03322968 -6.8507348 361.10262764 -6.84969807 355.88390446 C-6.85659626 353.98363794 -6.85659626 353.98363794 -6.86363381 352.04498219 C-6.85861895 350.64156133 -6.8534167 349.23814112 -6.84804726 347.83472157 C-6.84963549 346.3420649 -6.85209922 344.84940896 -6.85536367 343.35675502 C-6.86178173 339.25397924 -6.85570553 335.15130203 -6.84759939 331.04853272 C-6.84102584 326.62456237 -6.84597005 322.2006031 -6.84948158 317.77663136 C-6.85452538 309.11077623 -6.84888007 300.44495924 -6.83963128 291.77910885 C-6.82925538 281.69552756 -6.82931724 271.61195455 -6.82980386 261.52836892 C-6.83030459 243.54427642 -6.82113922 225.5602017 -6.80661964 207.57611561 C-6.79252361 190.10768783 -6.78544922 172.63927571 -6.78611183 155.17084217 C-6.78615179 154.09441579 -6.78619174 153.0179894 -6.78623291 151.90894404 C-6.78627327 150.83441394 -6.78631362 149.75988384 -6.7863552 148.65279222 C-6.78704417 128.78627086 -6.78116107 108.91975617 -6.77220198 89.05323698 C-6.76918004 82.01644209 -6.76812177 74.97964843 -6.76766968 67.94285297 C-6.76698912 59.37618392 -6.76254642 50.80952611 -6.75333687 42.24286184 C-6.74870507 37.86812363 -6.74567845 33.49339985 -6.74693108 29.11865902 C-6.74802038 25.12064625 -6.74454318 21.12266548 -6.73728255 17.12465939 C-6.73545862 15.67190812 -6.73534912 14.21915357 -6.73704984 12.76640216 C-6.73909357 10.80465857 -6.73447813 8.84291132 -6.72944355 6.88117313 C-6.72873913 5.7876309 -6.7280347 4.69408867 -6.72730893 3.5674088 C-6.48958903 -1.0050648 -4.01237078 0.00673766 0 0 Z " fill="#ffffff" transform="translate(6.600809097290039,-0.13422107696533203)"/>
<path d="M0 0 C19.81051366 -0.09350967 39.62098243 -0.16401171 59.43167114 -0.20724869 C68.63046656 -0.22785946 77.82912472 -0.25595162 87.02783203 -0.30175781 C95.04697227 -0.3416711 103.06601309 -0.36744361 111.0852499 -0.37635398 C115.33001962 -0.38156114 119.57450493 -0.39376872 123.81918335 -0.42292023 C127.8181336 -0.45016046 131.81668348 -0.45842774 135.8157177 -0.45243073 C137.27980668 -0.45352713 138.74390968 -0.4614299 140.20791817 -0.4768219 C149.69147532 -0.57160001 156.03621683 -0.00859724 163.46472168 5.99043274 C164.15118774 6.68879745 164.83765381 7.38716217 165.54492188 8.10668945 C166.33934692 8.90464432 167.13377197 9.70259918 167.95227051 10.5247345 C169.19792786 11.80606514 169.19792786 11.80606514 170.46875 13.11328125 C171.34849487 14.00105759 172.22823975 14.88883392 173.13464355 15.80351257 C175.46004055 18.15290361 177.77677586 20.51038565 180.08905029 22.87268066 C183.33790197 26.18800753 186.60178471 29.48852357 189.86535645 32.78935242 C191.5965647 34.54201349 193.32423591 36.29817798 195.04772949 38.0584259 C199.21589278 42.29472527 203.4580097 46.32409859 207.96594238 50.19450378 C211.97353866 53.75177761 215.69992478 57.59976395 219.46875 61.40625 C220.34849487 62.28978149 221.22823975 63.17331299 222.13464355 64.08361816 C225.39656945 67.3597232 228.65392564 70.6403498 231.91094971 73.92132568 C235.1148726 77.14830538 238.32269116 80.3713808 241.53125 83.59375 C242.36168823 84.43248657 243.19212646 85.27122314 244.04772949 86.13537598 C247.59059894 89.69297669 251.14066805 93.1801255 254.95019531 96.45239258 C259.97179588 100.77148338 264.5976378 105.47346536 269.265625 110.16796875 C270.23087835 111.13509316 271.19635715 112.1019926 272.16204834 113.06867981 C274.68122902 115.59164242 277.19739315 118.11759186 279.71289062 120.64422607 C282.27291018 123.21451254 284.83579113 125.78194238 287.3984375 128.34960938 C291.90202225 132.86271272 296.40313056 137.37827433 300.90240479 141.89567566 C302.33751521 143.33538994 303.79574259 144.75232709 305.27288818 146.14888 C307 148 307 148 307 150 C255.85 150 204.7 150 152 150 C152 202.14 152 254.28 152 308 C148.31305903 306.15652951 146.54465175 304.770156 143.734375 301.89453125 C142.92613281 301.07533203 142.11789062 300.25613281 141.28515625 299.41210938 C140.44855469 298.55423828 139.61195313 297.69636719 138.75 296.8125 C137.10147731 295.12904002 135.45046364 293.44801544 133.796875 291.76953125 C133.06823242 291.02292236 132.33958984 290.27631348 131.58886719 289.50708008 C129.52629215 287.5096656 127.43860581 285.63311337 125.26464844 283.76245117 C120.6169295 279.72779882 116.29614075 275.40428786 111.96875 271.03125 C111.13339722 270.1921106 110.29804443 269.35297119 109.43737793 268.48840332 C105.89663871 264.9314548 102.36192676 261.3685388 98.82666016 257.80615234 C96.2302794 255.19159836 93.63083434 252.58011816 91.03125 249.96875 C90.24455933 249.17376099 89.45786865 248.37877197 88.64733887 247.55969238 C85.20779946 244.10509225 81.75310119 240.73218483 78.0546875 237.5546875 C73.15402475 233.33558789 68.64248313 228.74816266 64.09375 224.15625 C62.68137068 222.7380835 61.26898839 221.31991993 59.85643768 219.90192413 C56.90687976 216.93933555 53.96193688 213.97215979 51.01617432 211.00579834 C48.58122894 208.55418969 46.14525184 206.10362669 43.70666504 203.65563965 C41.88779387 201.82931571 40.07117348 200.00074639 38.25720215 198.16955566 C33.89517294 193.79025943 29.46805805 189.57699023 24.77914429 185.54983521 C22.22385237 183.32388794 19.83958745 180.96930295 17.44140625 178.57421875 C16.96678452 178.10055374 16.49216278 177.62688873 16.00315857 177.13887024 C15.01821364 176.15459654 14.03449266 175.16909653 13.05200195 174.18237305 C11.54427904 172.66921334 10.03118241 171.16157115 8.51757812 169.65429688 C7.55436608 168.69042526 6.5914636 167.72624416 5.62890625 166.76171875 C4.76338135 165.89506592 3.89785645 165.02841309 3.00610352 164.13549805 C-0.30865845 160.60693253 -0.12398302 158.45029899 -0.12025452 153.68527222 C-0.12110894 153.03019499 -0.12196337 152.37511776 -0.12284368 151.70018971 C-0.12449671 149.49524879 -0.11898001 147.29038319 -0.11352539 145.08544922 C-0.11324345 143.5088196 -0.11340138 141.93218985 -0.1139679 140.3555603 C-0.11425562 136.06654789 -0.10836291 131.77756327 -0.10139394 127.48855734 C-0.09515626 123.00955438 -0.09455627 118.53055083 -0.09336853 114.05154419 C-0.09025644 105.56593886 -0.08204469 97.08034637 -0.07201904 88.59474671 C-0.06085412 78.93587739 -0.0553465 69.27700747 -0.05032361 59.61813331 C-0.03986198 39.74541503 -0.0222649 19.87270832 0 0 Z " fill="#ffffff" transform="translate(206,204)"/>
</svg>