<svg version="1.1" xmlns="http://www.w3.org/2000/svg" width="513px" height="513px" transform="rotate(0) scale(1, 1)">
<path d="M0 0 C0 43.89 0 87.78 0 133 C108.9 133 217.8 133 330 133 C328.87590009 138.62049955 328.87590009 138.62049955 326.18359375 140.98828125 C325.29619507 141.78866821 325.29619507 141.78866821 324.39086914 142.60522461 C323.74625732 143.16862549 323.10164551 143.73202637 322.4375 144.3125 C321.06780561 145.54670274 319.70071003 146.78379439 318.3359375 148.0234375 C317.62405273 148.66893555 316.91216797 149.31443359 316.17871094 149.97949219 C311.86114652 153.98354453 307.75469374 158.20204475 303.63256836 162.40551758 C300.5452061 165.53300151 297.42316593 168.54466876 294.08984375 171.41015625 C289.4899205 175.37599228 285.25600461 179.67136733 281 184 C272.57808043 192.56563834 272.57808043 192.56563834 268.03125 196.46875 C263.26833486 200.56202757 258.90285874 205.02646937 254.5 209.5 C245.54329358 218.60047378 245.54329358 218.60047378 241.25 222.25 C234.98655461 227.62669639 229.29960269 233.63433186 223.5 239.5 C221.13845147 241.88844982 218.773397 244.27334995 216.40625 246.65625 C215.61994202 247.45500549 215.61994202 247.45500549 214.81774902 248.26989746 C212.03093895 251.07461229 209.17898011 253.73756727 206.17822266 256.31298828 C201.44608554 260.40966497 197.10917405 264.85678381 192.7421875 269.3359375 C190.96415909 271.1412333 189.18549289 272.94590114 187.40625 274.75 C184.64248695 277.55682451 181.88269856 280.36709849 179.13378906 283.18847656 C161.98492036 300.76837608 146.26765446 314.94579502 120.56839943 316.16246033 C116.59557459 316.20673101 112.62609499 316.18318818 108.65356445 316.13867188 C107.0609945 316.12887797 105.46841756 316.1201741 103.87583637 316.11241913 C100.2736416 316.09358399 96.67153776 316.06907953 93.06940079 316.04135132 C86.47879816 315.99316787 79.88819808 315.9721195 73.29745483 315.95336914 C62.79652292 315.92280075 52.29562118 315.88799782 41.79472351 315.84753418 C40.38320862 315.84211779 38.97169372 315.83670236 37.56017882 315.83128786 C35.40876291 315.82302606 33.25734704 315.81475419 31.10593126 315.80645856 C23.69835121 315.77791083 16.29076812 315.75019008 8.88318483 315.72249681 C-4.31803185 315.67312348 -17.51924614 315.62314092 -30.72045898 315.57275391 C-43.51472859 315.52392149 -56.30899927 315.47538926 -69.10327148 315.42724609 C-70.29394305 315.4227656 -70.29394305 315.4227656 -71.50866858 315.41819459 C-75.49237025 315.40320574 -79.47607195 315.38822263 -83.45977366 315.37324238 C-116.30651917 315.24971857 -149.15326082 315.12519712 -182 315 C-182.84902099 311.81328179 -183.12984714 309.02731589 -183.14044189 305.72016907 C-183.14615204 304.65066513 -183.15186218 303.58116119 -183.15774536 302.47924805 C-183.15886322 301.31087402 -183.15998108 300.1425 -183.16113281 298.9387207 C-183.16609772 297.7041362 -183.17106262 296.4695517 -183.17617798 295.19755554 C-183.18827708 291.81298272 -183.1957426 288.42847161 -183.20018864 285.04388452 C-183.20312405 282.92646727 -183.2072298 280.80905539 -183.21169281 278.69164085 C-183.22536331 272.05854961 -183.23503137 265.42547068 -183.2388947 258.79236633 C-183.24337035 251.15104 -183.26089708 243.509893 -183.2898953 235.86862117 C-183.31156224 229.95252156 -183.3216017 224.03647221 -183.32293582 218.12033337 C-183.32398054 214.59161456 -183.3298166 211.06306441 -183.34775543 207.53438759 C-183.3674062 203.59228451 -183.3629272 199.65040269 -183.35644531 195.70825195 C-183.3656601 194.54999908 -183.37487488 193.39174622 -183.3843689 192.19839478 C-183.34524782 184.58651621 -182.73651946 177.87560024 -178.2504425 171.52218628 C-177.60616806 170.8882193 -176.96189362 170.25425232 -176.2980957 169.60107422 C-175.56335526 168.86355927 -174.82861481 168.12604431 -174.0716095 167.36618042 C-173.28098618 166.60338776 -172.49036285 165.84059509 -171.67578125 165.0546875 C-170.85554977 164.24057404 -170.0353183 163.42646057 -169.19023132 162.587677 C-166.57810749 160.00235667 -163.94562831 157.43890528 -161.3125 154.875 C-159.56182626 153.14587152 -157.81246367 151.41541447 -156.06445312 149.68359375 C-143.22991748 137.01561994 -143.22991748 137.01561994 -138.12573242 132.64111328 C-133.35926694 128.52055302 -128.94288424 124.05566406 -124.50927734 119.58444214 C-122.9630726 118.02526273 -121.41358104 116.46941379 -119.86328125 114.91430664 C-116.57267017 111.61236864 -113.28603038 108.30649584 -110 105 C-106.18663495 101.16288524 -102.37157851 97.32748325 -98.55224609 93.49630737 C-97.03923948 91.97690534 -95.5293203 90.45448297 -94.01953125 88.93188477 C-89.48463874 84.3731441 -84.88992548 79.9669917 -80.00708008 75.78222656 C-75.85567067 72.09590025 -71.99941322 68.09898831 -68.09375 64.15625 C-66.68137068 62.7380835 -65.26898839 61.31991993 -63.85643768 59.90192413 C-61.40212499 57.43676868 -58.95115467 54.96829491 -56.5 52.5 C-53.57062797 49.55014369 -50.64063715 46.60092161 -47.70666504 43.65563965 C-45.88779387 41.82931571 -44.07117348 40.00074639 -42.25720215 38.16955566 C-37.90312192 33.79823987 -33.48172537 29.60069421 -28.80154419 25.58114624 C-26.0923281 23.20337119 -23.58296736 20.65223894 -21.07421875 18.06640625 C-20.02046009 16.99516938 -18.96641585 15.92421335 -17.91210938 14.85351562 C-16.28505781 13.19527457 -14.66052097 11.534761 -13.04077148 9.86938477 C-11.45439694 8.24088361 -9.85888522 6.62181452 -8.26171875 5.00390625 C-7.53513313 4.24938927 -7.53513313 4.24938927 -6.79386902 3.47962952 C-3.34048873 0 -3.34048873 0 0 0 Z " fill="#ffffff" transform="translate(183,197)"/>
<path d="M0 0 C1.11793398 -0.00260775 2.23586797 -0.00521549 3.38767874 -0.00790226 C4.61587564 -0.00567154 5.84407254 -0.00344082 7.10948753 -0.0011425 C8.4141473 -0.00270249 9.71880708 -0.00426248 11.06300199 -0.00586975 C14.68721411 -0.01005203 18.31139997 -0.00797733 21.9356122 -0.00488353 C25.84291228 -0.00262524 29.75020777 -0.00611116 33.65750694 -0.00886345 C41.31248947 -0.01331526 48.96746221 -0.01234735 56.62244512 -0.00945081 C62.8413463 -0.0071948 69.06024473 -0.00688511 75.27914619 -0.00797462 C76.60547744 -0.00820447 76.60547744 -0.00820447 77.95860326 -0.00843897 C79.75470866 -0.00875868 81.55081406 -0.0090829 83.34691946 -0.00941156 C100.19706035 -0.01226454 117.04719581 -0.008982 133.89733581 -0.00361119 C148.36782587 0.00085823 162.83830792 0.00007942 177.30879784 -0.00452995 C194.10068181 -0.00987625 210.89256103 -0.0119915 227.68444574 -0.00891769 C229.47342833 -0.00859913 231.26241092 -0.00828476 233.05139351 -0.00797462 C233.93168331 -0.00782035 234.81197311 -0.00766607 235.71893836 -0.00750712 C241.93421194 -0.00664225 248.14948251 -0.00810418 254.36475563 -0.01045418 C261.93339678 -0.01325292 269.50202756 -0.01251228 277.07066752 -0.00717343 C280.9351574 -0.00453766 284.79962995 -0.00352929 288.66411972 -0.00682259 C292.84522434 -0.01033194 297.02628485 -0.00615386 301.20738792 -0.0011425 C302.44004627 -0.00337322 303.67270461 -0.00560395 304.94271624 -0.00790226 C306.61179398 -0.00399064 306.61179398 -0.00399064 308.31459045 0 C309.76376828 0.00024353 309.76376828 0.00024353 311.24222243 0.00049198 C313.53145409 0.12584114 313.53145409 0.12584114 315.53145409 1.12584114 C316.53838489 4.14663354 316.66188034 6.17142693 316.67189598 9.33011055 C316.6804612 10.94709343 316.6804612 10.94709343 316.68919945 12.59674263 C316.69031731 13.77963371 316.69143517 14.9625248 316.6925869 16.18126106 C316.6975518 17.4270594 316.70251671 18.67285774 316.70763206 19.95640755 C316.71974376 23.37609515 316.72720007 26.79572157 316.73164272 30.21542335 C316.7345756 32.3537661 316.73868089 34.49210351 316.7431469 36.63044357 C316.75682225 43.32600669 316.76648776 50.02155758 316.77034879 56.7171337 C316.7748247 64.43601998 316.79235061 72.15472876 316.82134938 79.87356108 C316.84300366 85.84567537 316.85305512 91.81773986 316.85438991 97.78989297 C316.8554356 101.35380556 316.86129235 104.91755131 316.87920952 108.48142242 C316.89883252 112.4621553 316.89438629 116.44266858 316.8878994 120.42344856 C316.90172157 122.18260345 316.90172157 122.18260345 316.91582298 123.97729683 C316.86723744 133.50471887 315.57762924 139.61599693 308.80476952 146.48573494 C307.85797325 147.4079232 307.85797325 147.4079232 306.89204979 148.34874153 C306.22171211 149.02141563 305.55137444 149.69408974 304.8607235 150.3871479 C302.65468568 152.59479272 300.43139319 154.78412176 298.20723534 156.97349739 C296.66024947 158.51368625 295.1143007 160.0549174 293.56934166 161.59713936 C289.50483966 165.64825286 285.42512821 169.68371718 281.34242821 173.71647835 C278.02525132 176.99832387 274.71919277 180.29124285 271.41366863 183.58481884 C267.45287608 187.53075738 263.48695593 191.47152279 259.51973534 195.41099739 C258.77049608 196.15532587 258.02125683 196.89965435 257.24931335 197.66653824 C255.10819097 199.79122437 252.96363096 201.91237438 250.81783104 204.03233528 C250.19675468 204.64915169 249.57567833 205.26596809 248.93578148 205.90147591 C245.21545976 209.56808092 241.37174884 213.03806241 237.42311954 216.45667362 C234.71016456 218.85053048 232.1534476 221.37894247 229.60957909 223.95005989 C229.07506126 224.48603798 228.54054344 225.02201607 227.98982811 225.57423592 C226.84514279 226.72268692 225.70161229 227.87228997 224.55916405 229.02296638 C222.74409843 230.85096293 220.92578108 232.6756707 219.1066494 234.49962044 C215.24541223 238.37220536 211.38813413 242.24871848 207.53145409 246.12584114 C203.05722403 250.62378718 198.5813234 255.12004461 194.10115623 259.61207771 C192.32225154 261.39739659 190.54642013 263.18573253 188.7707119 264.97422981 C183.76946116 269.99782643 178.74574798 274.92435258 173.34941673 279.52827644 C169.96747295 282.50021539 166.85450894 285.74161654 163.70723534 288.95787239 C162.25244304 290.43016008 160.79735639 291.90215697 159.34200096 293.37388802 C157.08079412 295.66616826 154.82203079 297.96071132 152.56831932 300.26036263 C150.37135398 302.49961842 148.16507939 304.72934913 145.95723534 306.95787239 C144.95083755 307.99220154 144.95083755 307.99220154 143.92410851 309.04742622 C143.28962288 309.68536613 142.65513725 310.32330605 142.00142479 310.98057747 C141.45041603 311.54126427 140.89940727 312.10195107 140.33170128 312.67962837 C138.53145409 314.12584114 138.53145409 314.12584114 133.53145409 316.12584114 C133.53145409 271.90584114 133.53145409 227.68584114 133.53145409 182.12584114 C25.29145409 182.12584114 -82.94854591 182.12584114 -194.46854591 182.12584114 C-195.12854591 180.80584114 -195.78854591 179.48584114 -196.46854591 178.12584114 C-196.00706154 177.80873177 -195.54557716 177.49162239 -195.07010841 177.16490364 C-189.92271755 173.4823829 -185.54200549 169.34235742 -181.15604591 164.78599739 C-179.11749593 162.76818847 -177.08241371 160.91598005 -174.90604591 159.05943489 C-169.12968171 154.05727147 -163.83311882 148.5599548 -158.46854591 143.12584114 C-146.89860874 131.4059233 -146.89860874 131.4059233 -142.49979591 127.65709114 C-136.65726437 122.67162517 -131.36207277 117.08621017 -125.96854591 111.62584114 C-113.80963128 99.31624063 -113.80963128 99.31624063 -107.52909279 93.96373177 C-102.79958099 89.74527622 -98.41825124 85.13600833 -93.96854591 80.62584114 C-88.31627875 74.8967719 -82.68797455 69.23074786 -76.56424904 63.99888802 C-71.82618315 59.76421403 -67.43032216 55.14824327 -62.96854591 50.62584114 C-57.29600788 44.87622559 -51.6475799 39.18713377 -45.50174904 33.93638802 C-41.12734688 30.04102702 -37.07912129 25.79539178 -32.96854591 21.62584114 C-11.65051602 0.00195716 -11.65051602 0.00195716 0 0 Z " fill="#ffffff" transform="translate(196.4685459136963,-0.1258411407470703)"/>
</svg>