<?xml version="1.0" encoding="UTF-8"?>
<svg version="1.1" xmlns="http://www.w3.org/2000/svg" width="513" height="513">
<path d="M0 0 C2.59133619 2.34805421 4.16781602 4.79899482 5.86328125 7.84765625 C6.41298584 8.8315332 6.96269043 9.81541016 7.52905273 10.82910156 C8.41185913 12.42963379 8.41185913 12.42963379 9.3125 14.0625 C10.24074585 15.7345752 10.24074585 15.7345752 11.18774414 17.44042969 C20.92075116 35.02215918 30.38943947 52.7345371 39.57922363 70.60565186 C44.14759741 79.48651172 48.83530129 88.29129751 53.6550293 97.03833008 C57.69874592 104.3933191 61.56237338 111.83406848 65.41064453 119.29272461 C69.63165239 127.41681406 74.11441642 135.37937334 78.72436523 143.28881836 C85.27985482 154.65966522 87.90976942 164.42639858 85.51953125 177.66015625 C82.48713683 186.6341966 75.54172523 194.44929795 70 202 C67.87014256 204.93399391 65.74792536 207.8734882 63.625 210.8125 C63.08891113 211.55234131 62.55282227 212.29218262 62.00048828 213.05444336 C56.71845049 220.35506935 51.55812979 227.73885081 46.40234375 235.12890625 C43.28456858 239.59757074 40.14645096 244.05149691 37 248.5 C32.04645767 255.50613798 27.12308461 262.5330452 22.20654297 269.56518555 C18.52753041 274.82488954 14.83282178 280.07307714 11.125 285.3125 C5.7313984 292.93784278 0.3967666 300.60360954 -4.93261719 308.27392578 C-12.16441977 318.68104387 -19.43560154 329.06039831 -26.70898438 339.43847656 C-33.4892934 349.1141399 -40.25626587 358.79880013 -47 368.5 C-54.87682997 379.83121508 -62.78881741 391.13752975 -70.70898438 402.43847656 C-87.75073663 426.75483983 -87.75073663 426.75483983 -104.625 451.1875 C-109.18676079 457.84149053 -113.80372859 464.45579739 -118.43994141 471.05810547 C-121.72525397 475.73925032 -124.99269224 480.43183041 -128.23828125 485.140625 C-128.94831299 486.16857178 -129.65834473 487.19651855 -130.38989258 488.25561523 C-131.76140871 490.24251255 -133.12990745 492.23149728 -134.49487305 494.22290039 C-138.08365154 499.4151464 -141.79293061 504.2930165 -146 509 C-150.03734974 507.18119393 -151.89105384 504.77688754 -154.25 501.125 C-154.88083496 500.16279541 -154.88083496 500.16279541 -155.52441406 499.18115234 C-162.4954986 488.33532717 -168.69924991 476.99791606 -175.01116943 465.76019287 C-175.95510214 464.07992157 -176.90060766 462.40053413 -177.84619141 460.72119141 C-181.91610852 453.49115628 -185.9632693 446.24860817 -190 439 C-190.59635254 437.92959473 -191.19270508 436.85918945 -191.80712891 435.75634766 C-199.54459189 421.86263589 -207.25075955 407.95166314 -214.92236328 394.02148438 C-218.04274631 388.35607419 -221.1673708 382.69321313 -224.31202698 377.04122925 C-225.77502062 374.41124408 -227.23526057 371.77973454 -228.69534302 369.14813232 C-229.38756435 367.90229817 -230.08110488 366.65719591 -230.77609253 365.41290283 C-241.99062017 345.33157715 -241.99062017 345.33157715 -240.7109375 338.28125 C-237.7857288 328.89486605 -230.29683269 320.76925618 -224.56640625 312.91796875 C-220.96123878 307.96742688 -217.44074631 302.96050132 -213.9375 297.9375 C-212.76171951 296.25260364 -211.58593826 294.5677078 -210.41015625 292.8828125 C-209.8392627 292.06458008 -209.26836914 291.24634766 -208.68017578 290.40332031 C-206.08994234 286.69825521 -203.48384623 283.00447372 -200.875 279.3125 C-200.38765381 278.622771 -199.90030762 277.93304199 -199.39819336 277.22241211 C-198.42149396 275.84041899 -197.44468782 274.45850131 -196.46777344 273.07666016 C-193.97679014 269.55232484 -191.48855097 266.02605299 -189 262.5 C-188.00001278 261.08332432 -187.00001278 259.66665764 -186 258.25 C-185.505 257.54875 -185.01 256.8475 -184.5 256.125 C-163 225.66666667 -141.5 195.20833333 -120 164.75 C-119.25762085 163.69824585 -119.25762085 163.69824585 -118.50024414 162.62524414 C-117.49955812 161.20767346 -116.49874417 159.79019308 -115.49780273 158.37280273 C-113.00724549 154.84569428 -110.51888408 151.31707783 -108.03515625 147.78515625 C-102.92768165 140.52765245 -97.77978063 133.3040344 -92.5625 126.125 C-88.0746377 119.94832307 -83.7185846 113.69655375 -79.4375 107.375 C-74.97703559 100.79136254 -70.3462939 94.38664987 -65.52368164 88.06469727 C-61.63169145 82.92849906 -57.98240227 77.65151873 -54.375 72.3125 C-49.95621444 65.77574256 -45.37519341 59.48178743 -40.50390625 53.2734375 C-37.66111034 49.60828947 -35.02410424 45.80624494 -32.375 42 C-27.65317808 35.23467114 -22.7535822 28.6220529 -17.75 22.0625 C-16.77619385 20.78536133 -16.77619385 20.78536133 -15.78271484 19.48242188 C-3.64853833 3.64853833 -3.64853833 3.64853833 0 0 Z " fill="#335CFF" transform="translate(241,0)"/>
<path d="M0 0 C5.10495585 3.71339409 7.6254469 9.33778078 10.5 14.8125 C11.01699463 15.77808838 11.53398926 16.74367676 12.06665039 17.73852539 C13.16264161 19.78574806 14.25509386 21.83486876 15.34423828 23.88574219 C18.01851587 28.91568688 20.72697335 33.92702081 23.4375 38.9375 C23.97624756 39.93555664 24.51499512 40.93361328 25.07006836 41.96191406 C28.81550364 48.8787929 32.66475191 55.73052481 36.5625 62.5625 C41.40941095 71.0625336 45.99645172 79.66823873 50.47631836 88.36645508 C54.55252326 96.24068282 58.88448437 103.95066291 63.28076172 111.6496582 C67.09980592 118.35564285 70.76335492 125.12470055 74.31054688 131.97802734 C76.49059001 136.17792161 78.73186334 140.33064666 81.0625 144.44921875 C81.82796143 145.80817261 81.82796143 145.80817261 82.60888672 147.19458008 C83.59636207 148.94039197 84.59237812 150.68140928 85.59814453 152.41674805 C86.26499268 153.59877808 86.26499268 153.59877808 86.9453125 154.8046875 C87.34250488 155.49546387 87.73969727 156.18624023 88.14892578 156.89794922 C89.20611887 159.50908877 89.43527352 161.21031797 89 164 C86.65410862 166.39570758 85.2417452 166.97106457 81.88709807 167.37259549 C80.6492098 167.37145633 79.41132152 167.37031717 78.13592148 167.36914349 C77.44244964 167.37260502 76.7489778 167.37606655 76.03449166 167.37963298 C73.69935386 167.38760473 71.36483052 167.37408988 69.02972412 167.36076355 C67.34335187 167.36207121 65.65698021 167.36469691 63.97061181 167.36853105 C59.32772944 167.37525565 54.68505373 167.36321626 50.0421977 167.34819686 C45.03881291 167.33526917 40.03544024 167.33962364 35.03204346 167.34190369 C26.36038185 167.34347849 17.68878785 167.33404764 9.01714325 167.31719017 C-3.52066531 167.2928328 -16.05844111 167.28499824 -28.59627077 167.2812262 C-48.93692041 167.27465659 -69.277534 167.2546816 -89.61816406 167.22631836 C-109.37988097 167.19879098 -129.1415881 167.17755093 -148.90332031 167.16479492 C-150.12096361 167.16400675 -151.33860692 167.16321858 -152.5931485 167.16240653 C-158.70156697 167.15849148 -164.80998551 167.15470034 -170.9184041 167.15097082 C-221.61229432 167.11985904 -272.3061454 167.06700938 -323 167 C-320.61173549 164.51697453 -318.42255506 163.00989155 -315.34375 161.43359375 C-314.41369141 160.95341797 -313.48363281 160.47324219 -312.52539062 159.97851562 C-311.52701172 159.46998047 -310.52863281 158.96144531 -309.5 158.4375 C-307.39565725 157.35320626 -305.29149293 156.26856614 -303.1875 155.18359375 C-302.13820313 154.64460449 -301.08890625 154.10561523 -300.0078125 153.55029297 C-295.82413695 151.39393422 -291.66107235 149.19956512 -287.5 147 C-279.52825905 142.79599308 -271.53895488 138.62612199 -263.546875 134.4609375 C-257.52411229 131.320727 -251.5083604 128.167673 -245.5 125 C-238.50969193 121.3146335 -231.50761552 117.65234535 -224.5 114 C-206.08364053 104.40229179 -206.08364053 104.40229179 -187.75390625 94.640625 C-185.46106824 93.40600718 -183.16809501 92.17164044 -180.875 90.9375 C-180.2920517 90.62375427 -179.70910339 90.31000854 -179.10848999 89.98675537 C-168.46656054 84.26553827 -157.73728705 78.72371333 -146.98376465 73.21575928 C-138.63612249 68.93761062 -130.33323476 64.6044587 -122.125 60.0625 C-112.61983607 54.80461876 -102.97872919 49.82804629 -93.3125 44.875 C-92.54430939 44.48131226 -91.77611877 44.08762451 -90.98464966 43.68200684 C-87.98129362 42.14302954 -84.97784777 40.60422771 -81.97422791 39.06576538 C-70.79389193 33.33613232 -59.69780025 27.45691041 -48.63900757 21.49639893 C-42.1041423 17.97594696 -35.55711418 14.47883094 -29 11 C-27.37191406 10.13568359 -27.37191406 10.13568359 -25.7109375 9.25390625 C-22.71186822 7.67251116 -19.70244924 6.11336167 -16.6875 4.5625 C-15.80537842 4.09593994 -14.92325684 3.62937988 -14.0144043 3.14868164 C-9.24107682 0.7268617 -5.46652762 -1.0187317 0 0 Z " fill="#335CFF" transform="translate(424,346)"/>
</svg>
