<?xml version="1.0" encoding="UTF-8"?>
<svg version="1.1" xmlns="http://www.w3.org/2000/svg" width="500" height="500">
<path d="M0 0 C2.65563802 1.8968843 3.57242527 3.14485055 5 6 C5.40560326 11.4390732 4.48204172 14.96349851 2.1875 19.875 C1.54465816 21.27562218 0.90280104 22.67669658 0.26171875 24.078125 C-0.09615723 24.85091797 -0.4540332 25.62371094 -0.82275391 26.41992188 C-2.13800851 29.30246245 -3.40603455 32.2031023 -4.66796875 35.109375 C-8.97489779 45.02677397 -13.33506837 54.84164977 -18.2734375 64.4609375 C-20.84728171 69.73673582 -23.09599942 75.14198522 -25.37890625 80.54858398 C-28.77822084 88.56687465 -32.39266573 96.47686495 -36.04272461 104.38354492 C-38.69132528 110.1272447 -41.2967029 115.8843947 -43.8125 121.6875 C-46.2289088 127.26000602 -48.72737571 132.78780922 -51.28515625 138.296875 C-57.52315039 151.74413817 -63.57767443 165.2649639 -69.45556641 178.87329102 C-72.28821156 185.41322067 -75.23933771 191.88141672 -78.28515625 198.32421875 C-80.63913089 203.33036564 -82.85756398 208.3969723 -85.0925293 213.45703125 C-86.99741093 217.76364001 -88.94024818 222.04765011 -90.9375 226.3125 C-93.1586414 231.07467545 -95.23078387 235.88618878 -97.26806641 240.72875977 C-109.09858247 268.76387204 -109.09858247 268.76387204 -121.1875 275.875 C-130.76072255 279.70428902 -140.60992179 278.52803516 -150.08105469 274.84423828 C-155.50340089 272.4586819 -160.59307966 269.37241703 -165.71875 266.41796875 C-170.66410964 263.5803056 -175.73899802 261.20174092 -181 259 C-190.49604373 270.31851676 -199.54367224 282.04615105 -207.6953125 294.375 C-208.34113281 295.179375 -208.34113281 295.179375 -209 296 C-209.66 296 -210.32 296 -211 296 C-211.25652344 296.73089844 -211.51304687 297.46179688 -211.77734375 298.21484375 C-213.05914477 301.13472914 -214.5199293 303.12379437 -216.5625 305.5625 C-220.49765565 310.3506311 -224.22807717 315.26228381 -227.921875 320.23828125 C-228.60765625 321.14964844 -229.2934375 322.06101562 -230 323 C-230.68578125 323.92167969 -231.3715625 324.84335937 -232.078125 325.79296875 C-234 328 -234 328 -237 329 C-239.52594537 326.7775189 -240.55395934 325.01087922 -241.5 321.796875 C-241.7475 320.98089844 -241.995 320.16492188 -242.25 319.32421875 C-242.4975 318.47472656 -242.745 317.62523437 -243 316.75 C-244.48968424 311.73007447 -246.00060919 306.88802559 -248.14257812 302.10058594 C-250.05604603 297.4128075 -251.52586478 292.55199509 -253.09832764 287.74163818 C-256.04601708 278.73292278 -259.00709624 269.73713129 -262.375 260.875 C-266.50793552 249.97086849 -270.08690038 238.87264355 -273.73779297 227.80029297 C-274.23517125 226.29388577 -274.73272596 224.7875368 -275.23046875 223.28125 C-275.58836487 222.19688156 -275.58836487 222.19688156 -275.95349121 221.09060669 C-277.63820351 216.01449466 -279.43103213 210.98709151 -281.3293457 205.98632812 C-282 204 -282 204 -282 202 C-282.76699219 201.78472656 -283.53398437 201.56945312 -284.32421875 201.34765625 C-289.39808019 199.48742012 -294.04482618 196.96845348 -298.8125 194.4375 C-299.83351807 193.9002832 -300.85453613 193.36306641 -301.90649414 192.80957031 C-306.51908938 190.38025329 -311.1234442 187.93549607 -315.7265625 185.48828125 C-317.13018875 184.74215065 -318.53383382 183.99605546 -319.9375 183.25 C-320.95493286 182.70859375 -320.95493286 182.70859375 -321.99291992 182.15625 C-327.32561653 179.32961886 -332.71433145 176.6263707 -338.12280273 173.94824219 C-343.24997978 171.40015223 -348.30188346 168.72859686 -353.33837891 166.00634766 C-356.6153995 164.2436619 -359.90991253 162.53502339 -363.25 160.89453125 C-363.95962891 160.54583984 -364.66925781 160.19714844 -365.40039062 159.83789062 C-366.75048509 159.17854217 -368.10316515 158.52444805 -369.45898438 157.87695312 C-374.95969046 155.19215254 -380.34316404 152.27814944 -384 147.25 C-385.73215339 141.62050148 -384.94562615 137.04885665 -382.5 131.75 C-377.00405847 125.70446431 -368.93571275 122.97749946 -361.375 120.3125 C-360.45710693 119.98290283 -359.53921387 119.65330566 -358.59350586 119.3137207 C-348.645329 115.78903283 -338.588448 112.58455688 -328.52294922 109.41333008 C-327.87755692 109.20874176 -327.23216461 109.00415344 -326.56721497 108.79336548 C-324.80945726 108.23661042 -323.05040316 107.68395297 -321.29125977 107.1315918 C-317.77492881 105.92261665 -314.41567221 104.46729246 -311 103 C-308.75273489 102.21016485 -306.49558138 101.44802965 -304.23046875 100.7109375 C-302.9065283 100.27635533 -301.58280789 99.84110239 -300.25927734 99.40527344 C-299.56638611 99.17755249 -298.87349487 98.94983154 -298.15960693 98.71520996 C-294.40676308 97.47235819 -290.66641921 96.19309422 -286.92578125 94.9140625 C-286.14933258 94.64873215 -285.37288391 94.38340179 -284.57290649 94.11003113 C-282.1525312 93.28238625 -279.73247162 92.45382438 -277.3125 91.625 C-276.4711853 91.33698517 -275.62987061 91.04897034 -274.76306152 90.75222778 C-260.53157015 85.87925034 -246.32193048 80.95050417 -232.14382935 75.92419434 C-203.43474484 65.74820521 -203.43474484 65.74820521 -191.3972168 61.78857422 C-181.53108761 58.53617364 -171.71280022 55.14372601 -161.88729858 51.77108765 C-150.04389671 47.70710518 -138.18607852 43.6947162 -126.28466797 39.80322266 C-122.32576624 38.49889625 -118.44891813 37.1940987 -114.62109375 35.5390625 C-109.03715947 33.16573984 -103.26438299 31.38386773 -97.5 29.5 C-86.6565943 25.93116951 -75.87219784 22.22351333 -65.125 18.375 C-53.8657085 14.3463397 -42.57197168 10.44792156 -31.20703125 6.7265625 C-27.97577931 5.66688554 -24.76731426 4.56794624 -21.57421875 3.3984375 C-14.48215911 0.8228864 -7.60921635 -1.51095351 0 0 Z " fill="#50BEF1" transform="translate(439,85)"/>
<path d="M0 0 C1.98 1.485 1.98 1.485 4 3 C3.50436681 10.43449782 3.50436681 10.43449782 0.9375 13.3125 C-0.0215625 14.1478125 -0.0215625 14.1478125 -1 15 C-1 15.99 -1 16.98 -1 18 C-2.44326219 21.97812877 -4.0974812 25.83006823 -6.6875 29.1875 C-8.49532497 31.6840202 -8.50055836 33.94785665 -9 37 C-9.56217351 38.92940131 -10.17028101 40.84574601 -10.8125 42.75 C-11.28623047 44.16539062 -11.28623047 44.16539062 -11.76953125 45.609375 C-13.17343852 48.33696628 -14.16300712 48.97701724 -17 50 C-17 50.66 -17 51.32 -17 52 C-17.66 52 -18.32 52 -19 52 C-18.731875 52.886875 -18.46375 53.77375 -18.1875 54.6875 C-18.125625 55.780625 -18.06375 56.87375 -18 58 C-20.3125 60.5625 -20.3125 60.5625 -23 63 C-24.50419756 65.85797537 -25.00346789 68.03005508 -25.375 71.25 C-26.15447109 75.92682657 -27.9344417 79.76320367 -30 84 C-30.99 83.67 -31.98 83.34 -33 83 C-32.92910156 84.00675781 -32.85820312 85.01351562 -32.78515625 86.05078125 C-33.02469492 90.45393758 -34.33899492 93.42168951 -36.4375 97.1875 C-39.31761676 102.35922696 -39.31761676 102.35922696 -41 108 C-41.66 108 -42.32 108 -43 108 C-43.11601562 108.52722656 -43.23203125 109.05445313 -43.3515625 109.59765625 C-44.16943444 112.62772396 -45.25632085 115.50520465 -46.375 118.4375 C-47.00535156 120.10619141 -47.00535156 120.10619141 -47.6484375 121.80859375 C-49 125 -49 125 -50.54296875 127.56640625 C-52.57326465 130.95749029 -53.62493199 134.53658691 -54.83984375 138.28125 C-56 141 -56 141 -57.94140625 143.34765625 C-60.52325254 146.67417168 -61.66310952 149.98192019 -63 153.9375 C-64.7937364 159.21522441 -66.88091223 163.33105495 -70 168 C-70.84200782 170.65132608 -70.84200782 170.65132608 -71.1875 173.25 C-71.93721973 177.87443946 -71.93721973 177.87443946 -73 180 C-73.66 180 -74.32 180 -75 180 C-75.30744141 181.04800781 -75.30744141 181.04800781 -75.62109375 182.1171875 C-76.02521484 183.48230469 -76.02521484 183.48230469 -76.4375 184.875 C-76.70433594 185.77992188 -76.97117187 186.68484375 -77.24609375 187.6171875 C-78 190 -78 190 -79 192 C-79.66 192 -80.32 192 -81 192 C-81.17015625 192.79664063 -81.3403125 193.59328125 -81.515625 194.4140625 C-82.90549386 200.49104229 -84.3369617 204.89394661 -88 210 C-89.08493858 212.44427797 -90.04182943 214.92148528 -91 217.41796875 C-93.36010534 223.5118345 -96.12602981 229.39488533 -99.16796875 235.17578125 C-100.04298689 237.09424825 -100.55062937 238.94378895 -101 241 C-101.66 241 -102.32 241 -103 241 C-103.20625 241.78375 -103.4125 242.5675 -103.625 243.375 C-107.04857408 252.40078621 -111.3109441 258.5147921 -120 263 C-130.3507322 266.45024407 -140.84578427 263.1102103 -150.25 258.5625 C-153.02708077 257.12205156 -155.53045026 255.63929382 -158.125 253.875 C-161.02394636 251.98438281 -163.67696244 250.92229676 -166.9140625 249.78125 C-172.08260624 247.84546583 -176.61379875 245.32746302 -181 242 C-181.7321875 241.71769531 -182.464375 241.43539062 -183.21875 241.14453125 C-186.4574215 239.81176334 -189.30684479 238.11024207 -192.3125 236.3125 C-198.26500594 232.80794905 -204.35933814 229.94541687 -210.75708008 227.34692383 C-214.17979023 225.93008102 -216.42231196 224.58974886 -219 222 C-221.54743499 220.645524 -224.08606978 219.36513386 -226.6875 218.125 C-232.34950193 215.36776276 -237.75108804 212.49927464 -243 209 C-241.71058208 206.13958483 -240.39652655 204.17151224 -238.09375 202.046875 C-237.51979492 201.51416992 -236.94583984 200.98146484 -236.35449219 200.43261719 C-235.43651855 199.59972168 -235.43651855 199.59972168 -234.5 198.75 C-233.8699707 198.1715332 -233.23994141 197.59306641 -232.59082031 196.99707031 C-228.32971333 193.11761973 -223.94669936 189.45207831 -219.390625 185.921875 C-215.77825825 183.01781545 -212.41274557 179.85497686 -209.03125 176.6875 C-207 175 -207 175 -205 175 C-205 174.34 -205 173.68 -205 173 C-203.42713316 171.58561594 -201.78860004 170.24395599 -200.125 168.9375 C-196.31164438 165.88974135 -192.60191191 162.79499659 -189 159.5 C-185.58260628 156.38541332 -182.0947765 153.4081338 -178.5 150.5 C-173.97400672 146.83579669 -169.62436929 143.02241167 -165.31640625 139.10546875 C-160.87608701 135.06949561 -156.34362154 131.14247821 -151.77734375 127.25 C-150.58061062 126.22930565 -149.3839996 125.2084681 -148.1875 124.1875 C-147.58228516 123.6711499 -146.97707031 123.1547998 -146.35351562 122.62280273 C-142.58770595 119.39719543 -138.8979999 116.1082297 -135.25 112.75 C-131.15998878 108.9948435 -126.93455678 105.51292261 -122.5625 102.09375 C-118.6251459 98.8766436 -114.94779078 95.39393903 -111.25 91.90625 C-109 90 -109 90 -107 90 C-107 89.34 -107 88.68 -107 88 C-104.953125 86.08984375 -104.953125 86.08984375 -102.25 83.9375 C-101.36828125 83.22464844 -100.4865625 82.51179688 -99.578125 81.77734375 C-97.16400344 80.11306298 -95.7634354 79.64821324 -93 79 C-91.11085463 77.60950004 -91.11085463 77.60950004 -89.375 75.9375 C-86.20941176 73 -86.20941176 73 -84 73 C-83.91234375 72.37996094 -83.8246875 71.75992188 -83.734375 71.12109375 C-83 69 -83 69 -81.328125 67.91015625 C-80.64234375 67.63042969 -79.9565625 67.35070312 -79.25 67.0625 C-75.36606698 65.31542619 -72.93736356 63.11014965 -70 60 C-69.34 60 -68.68 60 -68 60 C-67.731875 59.195625 -67.46375 58.39125 -67.1875 57.5625 C-66.795625 56.716875 -66.40375 55.87125 -66 55 C-65.01 54.67 -64.02 54.34 -63 54 C-63 53.34 -63 52.68 -63 52 C-61.49609375 50.921875 -61.49609375 50.921875 -59.4375 49.75 C-54.30939105 46.66405833 -49.74669697 43.25380254 -46.0625 38.5 C-43.65922162 35.58693529 -41.01334181 33.62146985 -37.9609375 31.42578125 C-36.31588758 30.22967922 -34.74147924 28.93724914 -33.1875 27.625 C-31 26 -31 26 -28 26 C-27.92007813 25.40960938 -27.84015625 24.81921875 -27.7578125 24.2109375 C-26.75723259 21.29171981 -25.36016473 20.41937318 -22.875 18.625 C-18.21609749 15.16791629 -13.54228906 11.6707558 -9.53125 7.45703125 C-7.90823886 5.91268647 -6.35283935 4.9769177 -4.375 3.9375 C-0.96685641 2.39458084 -0.96685641 2.39458084 0 0 Z " fill="#56C1F2" transform="translate(435,93)"/>
<path d="M0 0 C0.66 0.33 1.32 0.66 2 1 C-2.9582378 5.54953273 -7.95575555 10.01590051 -13.1875 14.25 C-22.15136197 21.51250573 -30.84871953 29.10454844 -39.375 36.875 C-43.0338012 40.1951353 -46.82198893 43.24318022 -50.7578125 46.2265625 C-54.03779641 48.82083549 -57.09035202 51.65011555 -60.15234375 54.49609375 C-62 56 -62 56 -64 56 C-64.29003906 56.82757813 -64.29003906 56.82757813 -64.5859375 57.671875 C-66.60636943 60.99833198 -69.54826682 62.96634649 -72.625 65.25 C-77.42786004 68.90949579 -81.80810424 72.63721528 -85.98828125 77.0078125 C-97.08823529 88 -97.08823529 88 -101 88 C-101 88.66 -101 89.32 -101 90 C-102.29296875 91.33984375 -102.29296875 91.33984375 -104.1875 92.9375 C-105.27611328 93.86369141 -105.27611328 93.86369141 -106.38671875 94.80859375 C-107.24910156 95.53175781 -108.11148438 96.25492187 -109 97 C-110.0486127 97.88620356 -111.09676471 98.77295243 -112.14453125 99.66015625 C-113.83607261 101.09214893 -115.52801441 102.5236446 -117.22167969 103.953125 C-120.77315154 106.95205439 -124.2896617 109.98558303 -127.77734375 113.05859375 C-130.83294313 115.72754435 -133.91719926 118.36256 -137 121 C-143.6757985 126.71534661 -150.30984503 132.46257036 -156.8125 138.375 C-160.27530082 141.50422827 -163.80679003 144.50500349 -167.4375 147.4375 C-171.24087503 150.51336588 -174.90082652 153.68753166 -178.5 157 C-193.0273772 170.33934205 -193.0273772 170.33934205 -199 173 C-199 173.66 -199 174.32 -199 175 C-200.40678023 176.24814331 -201.87879704 177.4230839 -203.375 178.5625 C-207.02244735 181.40453352 -210.52593757 184.3161668 -213.9375 187.4375 C-217.42983043 190.62782072 -221.00221251 193.65965256 -224.6875 196.625 C-228.6215445 199.79563926 -232.22511483 203.08135853 -235.66015625 206.78515625 C-237 208 -237 208 -239 208 C-238.89386164 210.45224694 -238.89386164 210.45224694 -238 213 C-236.36055242 213.73104983 -234.68770706 214.38855326 -233 215 C-231.40695816 215.82044072 -229.82776852 216.66820465 -228.26171875 217.5390625 C-227.36710937 218.0330957 -226.4725 218.52712891 -225.55078125 219.03613281 C-224.60589844 219.56045898 -223.66101563 220.08478516 -222.6875 220.625 C-216.01892371 224.29929779 -209.33868709 227.90213353 -202.5 231.25 C-192.32596104 236.24476282 -182.54754631 241.88957036 -173 248 C-173.639375 248.495 -174.27875 248.99 -174.9375 249.5 C-177.35229532 251.94466886 -177.35229532 251.94466886 -177.3203125 255.7421875 C-177.80392642 260.36350363 -179.94035713 263.19694506 -182.9375 266.625 C-183.93797288 267.82556746 -184.93528429 269.02877537 -185.9296875 270.234375 C-186.43854492 270.84732422 -186.94740234 271.46027344 -187.47167969 272.09179688 C-190.4597468 275.82258483 -193.13918641 279.78197267 -195.82592773 283.73291016 C-196.83688283 285.18910454 -197.91268734 286.59989877 -199 288 C-199.66 288 -200.32 288 -201 288 C-201.25652344 288.73089844 -201.51304687 289.46179688 -201.77734375 290.21484375 C-203.05914477 293.13472914 -204.5199293 295.12379437 -206.5625 297.5625 C-210.49765565 302.3506311 -214.22807717 307.26228381 -217.921875 312.23828125 C-218.95054687 313.60533203 -218.95054687 313.60533203 -220 315 C-221.02867187 316.38251953 -221.02867187 316.38251953 -222.078125 317.79296875 C-224 320 -224 320 -227 321 C-229.52594537 318.7775189 -230.55395934 317.01087922 -231.5 313.796875 C-231.7475 312.98089844 -231.995 312.16492188 -232.25 311.32421875 C-232.4975 310.47472656 -232.745 309.62523437 -233 308.75 C-234.48968424 303.73007447 -236.00060919 298.88802559 -238.14257812 294.10058594 C-240.05604603 289.4128075 -241.52586478 284.55199509 -243.09832764 279.74163818 C-246.04602665 270.73289354 -249.00756538 261.7373326 -252.375 252.875 C-257.55787514 239.18126484 -261.9827023 225.20638823 -266.57519531 211.30664062 C-268.70387988 204.86679344 -270.85198038 198.43341925 -273 192 C-272.04222656 192.02707031 -271.08445312 192.05414063 -270.09765625 192.08203125 C-267.05547228 192.32317779 -267.05547228 192.32317779 -265.4375 190.6875 C-264.963125 190.130625 -264.48875 189.57375 -264 189 C-261.56616717 187.46284242 -259.09678391 186.05211441 -256.5625 184.6875 C-253.83169994 182.88916826 -251.8239847 180.8988924 -249.625 178.5 C-247.58322309 176.61528285 -245.40421937 175.40437985 -243 174 C-241.61679278 173.1068866 -240.23830167 172.20644819 -238.86328125 171.30078125 C-238.12142578 170.81416016 -237.37957031 170.32753906 -236.61523438 169.82617188 C-235.06651366 168.80814087 -233.51966578 167.78725561 -231.97460938 166.76367188 C-230.86762695 166.03954102 -230.86762695 166.03954102 -229.73828125 165.30078125 C-228.73341675 164.63816284 -228.73341675 164.63816284 -227.70825195 163.9621582 C-226 163 -226 163 -224 163 C-223.67 162.01 -223.34 161.02 -223 160 C-220.92578125 158.31640625 -220.92578125 158.31640625 -218.3125 156.5625 C-217.40757812 155.94890625 -216.50265625 155.3353125 -215.5703125 154.703125 C-213.61051138 153.40453338 -211.64931914 152.10804094 -209.6875 150.8125 C-206.92716815 149.01099402 -206.92716815 149.01099402 -204.25 146.75 C-202 145 -202 145 -200 145 C-200 144.34 -200 143.68 -200 143 C-198.96875 142.505 -197.9375 142.01 -196.875 141.5 C-193.81976401 139.77762593 -192.18279991 138.09800279 -190.25 135.1875 C-187.17183979 130.77029927 -183.49865995 128.50713878 -178.921875 125.7734375 C-170.777706 120.83031888 -163.29783167 114.7456535 -155.7265625 108.98046875 C-153.21517291 107.15629322 -150.67491397 105.56950788 -148 104 C-140.31260237 99.04616457 -132.83425456 93.80254839 -125.37695312 88.51196289 C-119.86448974 84.60151266 -114.31296459 80.75290842 -108.734375 76.9375 C-105.94974593 75.01368218 -105.94974593 75.01368218 -103.265625 72.75 C-101 71 -101 71 -99 71 C-99 70.34 -99 69.68 -99 69 C-94.61538462 66 -94.61538462 66 -92 66 C-92 65.34 -92 64.68 -92 64 C-90.06374902 63.01836578 -88.12595461 62.03977546 -86.1875 61.0625 C-85.10855469 60.51722656 -84.02960938 59.97195312 -82.91796875 59.41015625 C-80 58 -80 58 -77 57 C-77 56.34 -77 55.68 -77 55 C-75.37946188 53.61096733 -73.70294787 52.28667172 -72 51 C-71.175 50.319375 -70.35 49.63875 -69.5 48.9375 C-67.08156498 47.06321286 -64.63789627 45.5441344 -62 44 C-60.96875 43.278125 -59.9375 42.55625 -58.875 41.8125 C-56 40 -56 40 -53 40 C-53 39.34 -53 38.68 -53 38 C-51.09375 36.484375 -51.09375 36.484375 -48.5 34.75 C-45.31504278 32.58654866 -42.17559071 30.41158356 -39.125 28.0625 C-34.8354641 24.80385053 -30.3416166 21.87303416 -25.83203125 18.9296875 C-23.10321401 17.07032789 -20.55824308 15.08543247 -18 13 C-16.78010909 12.07102496 -15.55208457 11.15252899 -14.3125 10.25 C-13.44044922 9.60804687 -13.44044922 9.60804687 -12.55078125 8.953125 C-11 8 -11 8 -9 8 C-9 7.34 -9 6.68 -9 6 C-7.03125 4.4921875 -7.03125 4.4921875 -4.5 2.875 C-3.6646875 2.33617188 -2.829375 1.79734375 -1.96875 1.2421875 C-1.3190625 0.83226563 -0.669375 0.42234375 0 0 Z " fill="#0E6DC1" transform="translate(429,93)"/>
<path d="M0 0 C3.39927249 1.29765071 6.55944151 2.77135525 9.73828125 4.5390625 C10.63289063 5.0330957 11.5275 5.52712891 12.44921875 6.03613281 C13.39410156 6.56045898 14.33898437 7.08478516 15.3125 7.625 C21.98107629 11.29929779 28.66131291 14.90213353 35.5 18.25 C45.67403896 23.24476282 55.45245369 28.88957036 65 35 C64.360625 35.495 63.72125 35.99 63.0625 36.5 C60.64770468 38.94466886 60.64770468 38.94466886 60.6796875 42.7421875 C60.19607358 47.36350363 58.05964287 50.19694506 55.0625 53.625 C54.06202712 54.82556746 53.06471571 56.02877537 52.0703125 57.234375 C51.56145508 57.84732422 51.05259766 58.46027344 50.52832031 59.09179688 C47.5402532 62.82258483 44.86081359 66.78197267 42.17407227 70.73291016 C41.16311717 72.18910454 40.08731266 73.59989877 39 75 C38.34 75 37.68 75 37 75 C36.74347656 75.73089844 36.48695313 76.46179688 36.22265625 77.21484375 C34.94085523 80.13472914 33.4800707 82.12379437 31.4375 84.5625 C27.50234435 89.3506311 23.77192283 94.26228381 20.078125 99.23828125 C19.39234375 100.14964844 18.7065625 101.06101562 18 102 C16.97132813 103.38251953 16.97132813 103.38251953 15.921875 104.79296875 C14 107 14 107 11 108 C8.47405463 105.7775189 7.44604066 104.01087922 6.5 100.796875 C6.2525 99.98089844 6.005 99.16492188 5.75 98.32421875 C5.5025 97.47472656 5.255 96.62523437 5 95.75 C4.50355013 94.07706738 4.00359896 92.40516945 3.5 90.734375 C3.2834375 89.99413086 3.066875 89.25388672 2.84375 88.49121094 C1.97786562 85.82652379 1.97786562 85.82652379 0.55908203 82.64599609 C-0.95265275 79.11072407 -2.227695 75.57561891 -3.4453125 71.9296875 C-3.66065643 71.28556915 -3.87600037 70.64145081 -4.09786987 69.97781372 C-4.54800232 68.62876621 -4.99664675 67.27922135 -5.44384766 65.92919922 C-6.12604563 63.87184662 -6.81466047 61.81671949 -7.50390625 59.76171875 C-7.94309335 58.44283648 -8.38190838 57.12383024 -8.8203125 55.8046875 C-9.41223389 54.02553955 -9.41223389 54.02553955 -10.01611328 52.21044922 C-10.85470946 49.47408699 -11.50632225 46.81561982 -12 44 C-11.34 44 -10.68 44 -10 44 C-9.67 45.65 -9.34 47.3 -9 49 C-8.34 49 -7.68 49 -7 49 C-5.68 52.63 -4.36 56.26 -3 60 C-2.34 60 -1.68 60 -1 60 C1.24480642 65.61201606 2.83348574 71.07136283 4 77 C4.33 77 4.66 77 5 77 C6.49243138 65.28641737 5.27267352 54.49461088 3.6875 42.875 C3.22817435 39.39386339 2.77578984 35.91183768 2.32421875 32.4296875 C2.2131076 31.57767761 2.10199646 30.72566772 1.98751831 29.84783936 C1.17041495 23.51321471 0.43389508 17.17277787 -0.23046875 10.8203125 C-0.32387039 9.96388153 -0.41727203 9.10745056 -0.51350403 8.22506714 C-1.11808621 2.23617241 -1.11808621 2.23617241 0 0 Z " fill="#286EAE" transform="translate(191,306)"/>
<path d="M0 0 C2.60873003 3.39134903 2.24301285 6.87304489 2 11 C0.85546875 14.3046875 0.85546875 14.3046875 -0.8125 17.875 C-1.45534184 19.27562218 -2.09719896 20.67669658 -2.73828125 22.078125 C-3.09615723 22.85091797 -3.4540332 23.62371094 -3.82275391 24.41992188 C-5.13800851 27.30246245 -6.40603455 30.2031023 -7.66796875 33.109375 C-11.97489779 43.02677397 -16.33506837 52.84164977 -21.2734375 62.4609375 C-23.84728171 67.73673582 -26.09599942 73.14198522 -28.37890625 78.54858398 C-31.77822084 86.56687465 -35.39266573 94.47686495 -39.04272461 102.38354492 C-41.69132528 108.1272447 -44.2967029 113.8843947 -46.8125 119.6875 C-49.2289088 125.26000602 -51.72737571 130.78780922 -54.28515625 136.296875 C-60.52315039 149.74413817 -66.57767443 163.2649639 -72.45556641 176.87329102 C-75.28821156 183.41322067 -78.23933771 189.88141672 -81.28515625 196.32421875 C-83.63913089 201.33036564 -85.85756398 206.3969723 -88.0925293 211.45703125 C-89.99741093 215.76364001 -91.94024818 220.04765011 -93.9375 224.3125 C-96.1586414 229.07467545 -98.23078387 233.88618878 -100.26806641 238.72875977 C-112.09858247 266.76387204 -112.09858247 266.76387204 -124.1875 273.875 C-133.76072255 277.70428902 -143.60992179 276.52803516 -153.08105469 272.84423828 C-158.50340089 270.4586819 -163.59307966 267.37241703 -168.71875 264.41796875 C-173.66410964 261.5803056 -178.73899802 259.20174092 -184 257 C-184.42152344 257.5053125 -184.84304688 258.010625 -185.27734375 258.53125 C-185.82519531 259.1809375 -186.37304688 259.830625 -186.9375 260.5 C-187.48277344 261.1496875 -188.02804688 261.799375 -188.58984375 262.46875 C-189.05519531 262.9740625 -189.52054688 263.479375 -190 264 C-190.33 264 -190.66 264 -191 264 C-191.25 261.25 -191.25 261.25 -191 258 C-188.984375 255.796875 -188.984375 255.796875 -187 254 C-196.18971231 248.83970754 -205.40451195 243.74858921 -214.75 238.875 C-221.60933269 235.29791878 -228.34558004 231.56082077 -235.0390625 227.68359375 C-238.63056054 225.64146228 -242.29223232 223.82017686 -246 222 C-247.67888441 221.02065076 -249.35178756 220.03013277 -251 219 C-251.495 219.99 -251.495 219.99 -252 221 C-252 218.69 -252 216.38 -252 214 C-247.71534463 215.14954168 -244.77408934 216.84698855 -241.2578125 219.50390625 C-237.17441645 222.20968599 -232.70729027 224.22251389 -228.3046875 226.3515625 C-225 228 -225 228 -222.546875 229.47265625 C-219.24800018 231.45096922 -215.82610771 233.11811109 -212.375 234.8125 C-206.64700147 237.64775475 -200.99938455 240.58518324 -195.41015625 243.6875 C-193.11242513 244.93877659 -190.78981249 246.1054043 -188.4375 247.25 C-185 249 -185 249 -183 251 C-179.88892888 252.4259076 -176.76976829 253.7138041 -173.5625 254.90625 C-169.58158986 256.41122822 -165.99973991 257.81178773 -162.625 260.4375 C-153.33527443 267.58174133 -141.49476234 270.21675567 -130 269 C-123.0164421 266.99772116 -118.91315209 263.56175751 -115.25 257.359375 C-114.8375 256.58078125 -114.425 255.8021875 -114 255 C-113.5875 254.22140625 -113.175 253.4428125 -112.75 252.640625 C-111.7987152 250.77769226 -110.89397572 248.89110248 -110 247 C-109.34 247 -108.68 247 -108 247 C-107.9175 246.154375 -107.835 245.30875 -107.75 244.4375 C-107.02420499 241.11093952 -105.85713498 238.90695717 -104.09765625 236.03125 C-102.83014059 233.68566941 -101.99077843 231.33376269 -101.125 228.8125 C-99.29909265 223.55850574 -96.92738917 218.73742303 -94.38671875 213.796875 C-92.63545926 210.26475727 -91.30471626 206.71844133 -90 203 C-89.33933281 201.33094605 -88.67561748 199.6630584 -88 198 C-87.34 198 -86.68 198 -86 198 C-85.69255859 196.95199219 -85.69255859 196.95199219 -85.37890625 195.8828125 C-84.97478516 194.51769531 -84.97478516 194.51769531 -84.5625 193.125 C-84.29566406 192.22007812 -84.02882813 191.31515625 -83.75390625 190.3828125 C-83 188 -83 188 -82 186 C-81.34 186 -80.68 186 -80 186 C-79.87044922 184.85724609 -79.87044922 184.85724609 -79.73828125 183.69140625 C-78.88911095 177.4511731 -77.67831384 172.76536815 -74.359375 167.42578125 C-72.15673729 163.49521224 -70.79012041 159.26027577 -69.30859375 155.015625 C-67.92614439 151.8298014 -66.17999872 149.6824203 -64 147 C-62.65002827 144.27574486 -62.65002827 144.27574486 -61.5625 141.375 C-59.52326816 136.26745028 -57.33027534 131.26556174 -55.015625 126.27734375 C-53.91675515 123.91291657 -53.91675515 123.91291657 -53 121 C-52.03010139 118.65314689 -51.01097956 116.32964856 -50 114 C-49.34 114 -48.68 114 -48 114 C-47.8453125 112.69869141 -47.8453125 112.69869141 -47.6875 111.37109375 C-46.95726948 107.79047476 -45.74724301 105.25877868 -44 102.0625 C-41.65345404 97.5546617 -40.23017046 94.06375022 -40 89 C-39.34 89 -38.68 89 -38 89 C-37.15238178 87.29870914 -36.3225132 85.58856916 -35.5 83.875 C-35.0359375 82.92367187 -34.571875 81.97234375 -34.09375 80.9921875 C-32.91626886 77.77093552 -32.94853962 75.39638534 -33 72 C-30.96006092 68.3421782 -29.49580738 66.33053826 -26 64 C-26.0309375 62.576875 -26.0309375 62.576875 -26.0625 61.125 C-26 58 -26 58 -24.125 55.875 C-23.42375 55.25625 -22.7225 54.6375 -22 54 C-21.28597474 52.69141674 -20.6242293 51.3537208 -20 50 C-19.65839844 49.27941406 -19.31679688 48.55882812 -18.96484375 47.81640625 C-16.81615846 43.13256014 -16.81615846 43.13256014 -15.4375 38.1875 C-15 36 -15 36 -13.625 34.1875 C-11.09886287 30.78693079 -9 26.29970195 -9 22 C-7.38461538 18.19230769 -7.38461538 18.19230769 -5 17 C-4.31527335 15.11235097 -4.31527335 15.11235097 -3.875 12.9375 C-3.62363281 11.83728516 -3.62363281 11.83728516 -3.3671875 10.71484375 C-3.24601563 10.14894531 -3.12484375 9.58304688 -3 9 C-6.33636722 7.93126928 -6.33636722 7.93126928 -9.625 9.3125 C-12.04092453 10.92968566 -12.04092453 10.92968566 -14 13 C-14.99 13 -15.98 13 -17 13 C-17.20625 13.556875 -17.4125 14.11375 -17.625 14.6875 C-19.96704354 18.62639141 -23.74232865 21.05674649 -27.359375 23.76953125 C-28.16890625 24.38183594 -28.9784375 24.99414062 -29.8125 25.625 C-30.58207031 26.19476563 -31.35164062 26.76453125 -32.14453125 27.3515625 C-34.2632002 28.95761565 -34.2632002 28.95761565 -35 32 C-37 33 -39 34 -41 35 C-42.68711423 36.6459651 -44.3545622 38.31237149 -46 40 C-47.3303125 40.7734375 -47.3303125 40.7734375 -48.6875 41.5625 C-51.30199674 43.1877277 -51.69780012 44.30878691 -53 47 C-53.60972656 47.29777344 -54.21945312 47.59554687 -54.84765625 47.90234375 C-57.25583109 49.13046921 -58.57147293 50.50172588 -60.375 52.5 C-63.34421599 55.58464987 -65.73291754 57.06332336 -70 58 C-70 58.66 -70 59.32 -70 60 C-71.2848951 61.38007251 -72.63015802 62.70420353 -74 64 C-74.86625 64.9075 -75.7325 65.815 -76.625 66.75 C-79 69 -79 69 -81 69 C-81.33 69.99 -81.66 70.98 -82 72 C-87.22222222 75 -87.22222222 75 -90 75 C-90.04125 75.5775 -90.0825 76.155 -90.125 76.75 C-91.4391917 80.12935009 -93.98378574 81.10747341 -97 83 C-98.36886951 84.29682374 -99.7169291 85.61823134 -101 87 C-101.66 86.34 -102.32 85.68 -103 85 C-102.52691406 84.5875 -102.05382812 84.175 -101.56640625 83.75 C-100.57447266 82.88375 -100.57447266 82.88375 -99.5625 82 C-98.83160156 81.36191406 -98.10070312 80.72382813 -97.34765625 80.06640625 C-95.80529634 78.70882157 -94.27112542 77.34186542 -92.74609375 75.96484375 C-89.18297738 72.74874393 -85.6229715 69.65170843 -81.75 66.8125 C-78.52124883 64.44474914 -75.80359622 61.87034851 -73 59 C-68.54130751 54.82821467 -64.08475636 50.69726711 -59.125 47.125 C-55.5831117 44.55232057 -52.38673968 41.66699495 -49.1875 38.6875 C-44.58016161 34.3984317 -39.84351664 30.35152215 -34.94140625 26.3984375 C-31.4394794 23.54294867 -27.99571955 20.62496871 -24.5625 17.6875 C-23.67522217 16.93158569 -23.67522217 16.93158569 -22.77001953 16.16040039 C-19.72335452 13.54728917 -16.79284613 10.88891455 -14 8 C-15.98 7.01 -15.98 7.01 -18 6 C-18 5.34 -18 4.68 -18 4 C-22.41522109 5.26974972 -22.41522109 5.26974972 -26 8 C-28.68839385 8.26991906 -31.29141936 8.08737357 -34 8 C-34 7.34 -34 6.68 -34 6 C-31.07925653 5.02641884 -28.15819747 4.05415609 -25.234375 3.08984375 C-23.31817707 2.44416836 -21.40844553 1.77770201 -19.515625 1.06640625 C-13.07991372 -1.31845839 -6.65339284 -2.14625576 0 0 Z M-23 5 C-22.34 5.66 -21.68 6.32 -21 7 C-21.66 7 -22.32 7 -23 7 C-23 6.34 -23 5.68 -23 5 Z " fill="#36A6DC" transform="translate(442,87)"/>
<path d="M0 0 C0.99 0.495 0.99 0.495 2 1 C-2.625 6.75 -2.625 6.75 -6 9 C-6.99 9 -7.98 9 -9 9 C-9 9.66 -9 10.32 -9 11 C-13.77871986 15.42271208 -19.64951304 18.73402871 -25.19140625 22.09375 C-27.41762479 23.60473004 -29.30957353 25.10325737 -31.3125 26.875 C-35.09948274 30.18712759 -39.17769968 32.83906263 -43.4375 35.5 C-50.26089276 39.78546116 -56.79477164 44.27214608 -62.9375 49.5 C-73.23109201 57.90293225 -73.23109201 57.90293225 -80 59 C-81.485 59.495 -81.485 59.495 -83 60 C-85.54931641 58.97119141 -85.54931641 58.97119141 -88.6015625 57.3515625 C-89.72328857 56.76262207 -90.84501465 56.17368164 -92.00073242 55.56689453 C-93.20891682 54.91977407 -94.41700404 54.27247215 -95.625 53.625 C-96.85929671 52.97287641 -98.09408132 52.32167546 -99.3293457 51.67138672 C-102.89240064 49.792389 -106.44655707 47.89711105 -110 46 C-112.38609199 44.7322934 -114.77301793 43.46617414 -117.16015625 42.20043945 C-118.50582999 41.48660361 -119.85088857 40.77160684 -121.1953125 40.05541992 C-126.45932446 37.25924061 -131.78248574 34.59263043 -137.1237793 31.94775391 C-142.25063262 29.39983248 -147.30220464 26.72842326 -152.33837891 24.00634766 C-155.6153995 22.2436619 -158.90991253 20.53502339 -162.25 18.89453125 C-162.95962891 18.54583984 -163.66925781 18.19714844 -164.40039062 17.83789062 C-165.75048509 17.17854217 -167.10316515 16.52444805 -168.45898438 15.87695312 C-173.00830195 13.656509 -177.05159716 11.18696117 -181 8 C-181.4375 4.6875 -181.4375 4.6875 -181 2 C-179.453125 3.0209375 -179.453125 3.0209375 -177.875 4.0625 C-173.47348198 6.82224398 -168.87366077 9.1215429 -164.21533203 11.40576172 C-160.82999865 13.06983147 -157.51664026 14.80178404 -154.25 16.6875 C-149.69072898 19.28053173 -144.90583442 21.16671324 -140 23 C-140 23.66 -140 24.32 -140 25 C-139.17886719 25.24105469 -138.35773438 25.48210937 -137.51171875 25.73046875 C-133.3681172 27.22843372 -129.66902018 29.20062706 -125.8125 31.3125 C-119.31877112 34.81529748 -112.78302243 38.08461887 -106 41 C-106 41.66 -106 42.32 -106 43 C-105.17242187 43.24878906 -104.34484375 43.49757813 -103.4921875 43.75390625 C-98.8011385 45.42778168 -94.51085038 47.69860467 -90.09765625 49.99023438 C-85.49126078 52.34668524 -80.8747584 54.26057279 -76 56 C-76 55.34 -76 54.68 -76 54 C-73.76953125 52.08984375 -73.76953125 52.08984375 -70.8125 49.9375 C-69.84957031 49.22464844 -68.88664062 48.51179688 -67.89453125 47.77734375 C-65.09743658 46.05982948 -63.17566986 45.54617017 -60 45 C-59.30062468 43.68352881 -58.63270867 42.34977849 -58 41 C-55.875 40.25 -55.875 40.25 -54 40 C-54 39.34 -54 38.68 -54 38 C-52.15625 36.6953125 -52.15625 36.6953125 -49.5 35.125 C-43.61896092 31.50179175 -38.14753261 27.45502491 -32.66015625 23.26416016 C-21.81766452 15 -21.81766452 15 -19 15 C-19 14.34 -19 13.68 -19 13 C-16.79784225 11.45640364 -14.60322696 10.02552438 -12.3125 8.625 C-7.99514851 5.95722359 -3.90283074 3.26852747 0 0 Z " fill="#3C93C6" transform="translate(238,227)"/>
<path d="M0 0 C4.28465537 1.14954168 7.22591066 2.84698855 10.7421875 5.50390625 C14.82558355 8.20968599 19.29270973 10.22251389 23.6953125 12.3515625 C27 14 27 14 29.453125 15.47265625 C32.75199982 17.45096922 36.17389229 19.11811109 39.625 20.8125 C45.35299853 23.64775475 51.00061545 26.58518324 56.58984375 29.6875 C58.88757487 30.93877659 61.21018751 32.1054043 63.5625 33.25 C67 35 67 35 69 37 C72.11107112 38.4259076 75.23023171 39.7138041 78.4375 40.90625 C82.41841014 42.41122822 86.00026009 43.81178773 89.375 46.4375 C98.60706659 53.53739883 110.55638378 56.30946852 122 55 C124.76592236 53.97615029 127.19651368 52.76445401 129.74609375 51.2890625 C132.09857019 49.94362537 134.46746748 48.9558412 137 48 C137 48.66 137 49.32 137 50 C136.34 50 135.68 50 135 50 C135 50.66 135 51.32 135 52 C134.071875 52.680625 134.071875 52.680625 133.125 53.375 C130.89214474 54.81298565 130.89214474 54.81298565 130.1171875 56.9921875 C128.34243632 60.18177529 125.91775216 60.48548863 122.546875 61.45703125 C107.850529 64.59014796 95.57408375 57.50358666 83.28125 50.41796875 C78.33589036 47.5803056 73.26100198 45.20174092 68 43 C67.57847656 43.5053125 67.15695312 44.010625 66.72265625 44.53125 C65.90087891 45.50578125 65.90087891 45.50578125 65.0625 46.5 C64.24458984 47.47453125 64.24458984 47.47453125 63.41015625 48.46875 C62.94480469 48.9740625 62.47945312 49.479375 62 50 C61.67 50 61.34 50 61 50 C60.75 47.25 60.75 47.25 61 44 C63.015625 41.796875 63.015625 41.796875 65 40 C55.81028769 34.83970754 46.59548805 29.74858921 37.25 24.875 C30.39066731 21.29791878 23.65441996 17.56082077 16.9609375 13.68359375 C13.36943946 11.64146228 9.70776768 9.82017686 6 8 C4.32111559 7.02065076 2.64821244 6.03013277 1 5 C0.67 5.66 0.34 6.32 0 7 C0 4.69 0 2.38 0 0 Z " fill="#258ECA" transform="translate(190,301)"/>
<path d="M0 0 C-1.91821774 8.76604883 -6.44811665 17.06404855 -10.21484375 25.15625 C-16.49156568 38.6430623 -22.55704952 52.21721372 -28.45556641 65.87329102 C-31.28821156 72.41322067 -34.23933771 78.88141672 -37.28515625 85.32421875 C-39.63913089 90.33036564 -41.85756398 95.3969723 -44.0925293 100.45703125 C-45.99741093 104.76364001 -47.94024818 109.04765011 -49.9375 113.3125 C-52.1586414 118.07467545 -54.23078387 122.88618878 -56.26806641 127.72875977 C-67.42080166 154.15771547 -67.42080166 154.15771547 -77 161 C-77.33 160.01 -77.66 159.02 -78 158 C-76.625 156.5 -76.625 156.5 -75 155 C-74.34 155 -73.68 155 -73 155 C-73 154.34 -73 153.68 -73 153 C-73.33 152.67 -73.66 152.34 -74 152 C-71.36 146.72 -68.72 141.44 -66 136 C-65.34 136 -64.68 136 -64 136 C-63.9175 135.154375 -63.835 134.30875 -63.75 133.4375 C-63.02420499 130.11093952 -61.85713498 127.90695717 -60.09765625 125.03125 C-58.83014059 122.68566941 -57.99077843 120.33376269 -57.125 117.8125 C-55.29909265 112.55850574 -52.92738917 107.73742303 -50.38671875 102.796875 C-48.63545926 99.26475727 -47.30471626 95.71844133 -46 92 C-45.33933281 90.33094605 -44.67561748 88.6630584 -44 87 C-43.34 87 -42.68 87 -42 87 C-41.79503906 86.30132812 -41.59007812 85.60265625 -41.37890625 84.8828125 C-41.10949219 83.97273438 -40.84007812 83.06265625 -40.5625 82.125 C-40.29566406 81.22007812 -40.02882813 80.31515625 -39.75390625 79.3828125 C-39 77 -39 77 -38 75 C-37.34 75 -36.68 75 -36 75 C-35.91363281 74.23816406 -35.82726562 73.47632813 -35.73828125 72.69140625 C-34.88911095 66.4511731 -33.67831384 61.76536815 -30.359375 56.42578125 C-28.15673729 52.49521224 -26.79012041 48.26027577 -25.30859375 44.015625 C-23.92614439 40.8298014 -22.17999872 38.6824203 -20 36 C-18.65002827 33.27574486 -18.65002827 33.27574486 -17.5625 30.375 C-15.52326816 25.26745028 -13.33027534 20.26556174 -11.015625 15.27734375 C-9.91675515 12.91291657 -9.91675515 12.91291657 -9 10 C-5.25 0 -5.25 0 0 0 Z " fill="#55AAD4" transform="translate(398,198)"/>
<path d="M0 0 C2.22765889 4.06789884 1.74929274 8.08668352 1.4375 12.625 C0.4475 12.625 -0.5425 12.625 -1.5625 12.625 C-1.5625 11.305 -1.5625 9.985 -1.5625 8.625 C-3.30921588 7.83143199 -3.30921588 7.83143199 -5.5625 7.625 C-8.36094381 9.0242219 -10.35041383 10.41291383 -12.5625 12.625 C-13.5525 12.625 -14.5425 12.625 -15.5625 12.625 C-15.76875 13.181875 -15.975 13.73875 -16.1875 14.3125 C-18.52954354 18.25139141 -22.30482865 20.68174649 -25.921875 23.39453125 C-26.73140625 24.00683594 -27.5409375 24.61914062 -28.375 25.25 C-29.14457031 25.81976563 -29.91414063 26.38953125 -30.70703125 26.9765625 C-32.8257002 28.58261565 -32.8257002 28.58261565 -33.5625 31.625 C-35.5625 32.625 -37.5625 33.625 -39.5625 34.625 C-41.24961423 36.2709651 -42.9170622 37.93737149 -44.5625 39.625 C-45.449375 40.140625 -46.33625 40.65625 -47.25 41.1875 C-49.86449674 42.8127277 -50.26030012 43.93378691 -51.5625 46.625 C-52.47708984 47.07166016 -52.47708984 47.07166016 -53.41015625 47.52734375 C-55.81833109 48.75546921 -57.13397293 50.12672588 -58.9375 52.125 C-61.90671599 55.20964987 -64.29541754 56.68832336 -68.5625 57.625 C-68.5625 58.285 -68.5625 58.945 -68.5625 59.625 C-69.8473951 61.00507251 -71.19265802 62.32920353 -72.5625 63.625 C-73.861875 64.98625 -73.861875 64.98625 -75.1875 66.375 C-77.5625 68.625 -77.5625 68.625 -79.5625 68.625 C-79.8925 69.615 -80.2225 70.605 -80.5625 71.625 C-85.78472222 74.625 -85.78472222 74.625 -88.5625 74.625 C-88.60375 75.2025 -88.645 75.78 -88.6875 76.375 C-90.0016917 79.75435009 -92.54628574 80.73247341 -95.5625 82.625 C-96.93136951 83.92182374 -98.2794291 85.24323134 -99.5625 86.625 C-100.2225 85.965 -100.8825 85.305 -101.5625 84.625 C-101.08941406 84.2125 -100.61632812 83.8 -100.12890625 83.375 C-99.46761719 82.7975 -98.80632812 82.22 -98.125 81.625 C-97.39410156 80.98691406 -96.66320312 80.34882813 -95.91015625 79.69140625 C-94.36779634 78.33382157 -92.83362542 76.96686542 -91.30859375 75.58984375 C-87.74547738 72.37374393 -84.1854715 69.27670843 -80.3125 66.4375 C-77.08374883 64.06974914 -74.36609622 61.49534851 -71.5625 58.625 C-67.10380751 54.45321467 -62.64725636 50.32226711 -57.6875 46.75 C-54.1456117 44.17732057 -50.94923968 41.29199495 -47.75 38.3125 C-43.14266161 34.0234317 -38.40601664 29.97652215 -33.50390625 26.0234375 C-30.0019794 23.16794867 -26.55821955 20.24996871 -23.125 17.3125 C-22.23772217 16.55658569 -22.23772217 16.55658569 -21.33251953 15.78540039 C-18.28585452 13.17228917 -15.35534613 10.51391455 -12.5625 7.625 C-13.8825 6.965 -15.2025 6.305 -16.5625 5.625 C-16.5625 4.965 -16.5625 4.305 -16.5625 3.625 C-20.97772109 4.89474972 -20.97772109 4.89474972 -24.5625 7.625 C-27.25089385 7.89491906 -29.85391936 7.71237357 -32.5625 7.625 C-32.5625 6.965 -32.5625 6.305 -32.5625 5.625 C-29.64175653 4.65141884 -26.72069747 3.67915609 -23.796875 2.71484375 C-21.88067707 2.06916836 -19.97094553 1.40270201 -18.078125 0.69140625 C-12.08257954 -1.5303473 -5.90660965 -3.1694003 0 0 Z M-21.5625 4.625 C-20.9025 5.285 -20.2425 5.945 -19.5625 6.625 C-20.2225 6.625 -20.8825 6.625 -21.5625 6.625 C-21.5625 5.965 -21.5625 5.305 -21.5625 4.625 Z " fill="#32A9EB" transform="translate(440.5625,87.375)"/>
<path d="M0 0 C0.99 0.33 1.98 0.66 3 1 C2.67637825 3.99350123 2.03542901 4.96634244 -0.1875 7.078125 C-1.5796875 8.15320313 -1.5796875 8.15320313 -3 9.25 C-7.58660142 12.85589395 -11.94624632 16.59932073 -16.22265625 20.56640625 C-18 22 -18 22 -20 22 C-20.29003906 22.82757813 -20.29003906 22.82757813 -20.5859375 23.671875 C-22.60636943 26.99833198 -25.54826682 28.96634649 -28.625 31.25 C-33.42786004 34.90949579 -37.80810424 38.63721528 -41.98828125 43.0078125 C-53.08823529 54 -53.08823529 54 -57 54 C-57 54.66 -57 55.32 -57 56 C-62.47619048 61 -62.47619048 61 -65 61 C-63.50867052 56.27745665 -63.50867052 56.27745665 -60.9375 54.875 C-60.298125 54.58625 -59.65875 54.2975 -59 54 C-58.67 53.01 -58.34 52.02 -58 51 C-52.77777778 48 -52.77777778 48 -50 48 C-49.979375 47.13375 -49.95875 46.2675 -49.9375 45.375 C-48.41017788 39.87664037 -44.19219387 37.25268221 -39.375 34.5 C-37.06605242 33.04171732 -36.10408787 31.94962328 -34.5 29.8125 C-32 27 -32 27 -29.1875 26.625 C-28.465625 26.74875 -27.74375 26.8725 -27 27 C-27 26.34 -27 25.68 -27 25 C-25.68 24.67 -24.36 24.34 -23 24 C-22.67 22.68 -22.34 21.36 -22 20 C-21.34 20 -20.68 20 -20 20 C-19.91878906 19.41992188 -19.83757812 18.83984375 -19.75390625 18.2421875 C-17.54776702 11.68092369 -7.75204207 5.64158059 -2 2 C-1.34 2 -0.68 2 0 2 C0 1.34 0 0.68 0 0 Z " fill="#0762B5" transform="translate(385,127)"/>
<path d="M0 0 C4.28465537 1.14954168 7.22591066 2.84698855 10.7421875 5.50390625 C14.82558355 8.20968599 19.29270973 10.22251389 23.6953125 12.3515625 C26.56540588 13.78321664 29.26067796 15.33859005 32 17 C33.76197207 17.91313881 35.53275984 18.80949486 37.3125 19.6875 C38.19550781 20.12449219 39.07851562 20.56148438 39.98828125 21.01171875 C40.65214844 21.33785156 41.31601563 21.66398437 42 22 C42 22.66 42 23.32 42 24 C42.82757813 24.40605469 42.82757813 24.40605469 43.671875 24.8203125 C46.23057288 26.11683391 48.73816719 27.48990362 51.25 28.875 C54.49193105 30.65269464 57.73557132 32.38735433 61.0625 34 C65.86556865 36.36658476 70.54290285 39.03164637 75 42 C75 42.33 75 42.66 75 43 C73.96875 42.855625 72.9375 42.71125 71.875 42.5625 C67.58139412 43.04726195 67.22230421 43.36684419 64.625 46.5 C64.14289063 47.1496875 63.66078125 47.799375 63.1640625 48.46875 C62.77992188 48.9740625 62.39578125 49.479375 62 50 C61.67 50 61.34 50 61 50 C60.75 47.25 60.75 47.25 61 44 C63.015625 41.796875 63.015625 41.796875 65 40 C55.81028769 34.83970754 46.59548805 29.74858921 37.25 24.875 C30.39066731 21.29791878 23.65441996 17.56082077 16.9609375 13.68359375 C13.36943946 11.64146228 9.70776768 9.82017686 6 8 C4.32111559 7.02065076 2.64821244 6.03013277 1 5 C0.67 5.66 0.34 6.32 0 7 C0 4.69 0 2.38 0 0 Z " fill="#297FBF" transform="translate(190,301)"/>
<path d="M0 0 C0.66 0 1.32 0 2 0 C2.33 1.65 2.66 3.3 3 5 C3.66 5 4.32 5 5 5 C6.32 8.63 7.64 12.26 9 16 C9.66 16 10.32 16 11 16 C13.24480642 21.61201606 14.83348574 27.07136283 16 33 C16.33 33 16.66 33 17 33 C17.33 30.69 17.66 28.38 18 26 C18.33 26 18.66 26 19 26 C19.51056617 29.79032017 20.00647633 33.58242622 20.5 37.375 C20.64308594 38.43589844 20.78617188 39.49679687 20.93359375 40.58984375 C21.77274003 47.10321727 22.1985891 53.4336881 22 60 C18.75429246 56.35450802 17.22485555 53.31743885 15.9375 48.625 C14.80341077 44.54617263 13.46884356 40.75959741 11.7837677 36.8788147 C10.55957342 33.94422807 9.56161774 30.9447547 8.5546875 27.9296875 C8.33934357 27.28556915 8.12399963 26.64145081 7.90213013 25.97781372 C7.45199768 24.62876621 7.00335325 23.27922135 6.55615234 21.92919922 C5.87395437 19.87184662 5.18533953 17.81671949 4.49609375 15.76171875 C4.05690665 14.44283648 3.61809162 13.12383024 3.1796875 11.8046875 C2.78507324 10.61858887 2.39045898 9.43249023 1.98388672 8.21044922 C1.14529054 5.47408699 0.49367775 2.81561982 0 0 Z " fill="#155A9D" transform="translate(179,350)"/>
<path d="M0 0 C0.99 0.495 0.99 0.495 2 1 C-2.625 6.75 -2.625 6.75 -6 9 C-6.99 9 -7.98 9 -9 9 C-9 9.66 -9 10.32 -9 11 C-13.77871986 15.42271208 -19.64951304 18.73402871 -25.19140625 22.09375 C-27.41762479 23.60473004 -29.30957353 25.10325737 -31.3125 26.875 C-35.09948274 30.18712759 -39.17769968 32.83906263 -43.4375 35.5 C-50.26089276 39.78546116 -56.79477164 44.27214608 -62.9375 49.5 C-73.37733319 58.02231281 -73.37733319 58.02231281 -80 59 C-80.33 57.68 -80.66 56.36 -81 55 C-79.35 55.33 -77.7 55.66 -76 56 C-76 55.34 -76 54.68 -76 54 C-73.76953125 52.08984375 -73.76953125 52.08984375 -70.8125 49.9375 C-69.84957031 49.22464844 -68.88664063 48.51179688 -67.89453125 47.77734375 C-65.09743658 46.05982948 -63.17566986 45.54617017 -60 45 C-59.30062468 43.68352881 -58.63270867 42.34977849 -58 41 C-55.875 40.25 -55.875 40.25 -54 40 C-54 39.34 -54 38.68 -54 38 C-52.15625 36.6953125 -52.15625 36.6953125 -49.5 35.125 C-43.61896092 31.50179175 -38.14753261 27.45502491 -32.66015625 23.26416016 C-21.81766452 15 -21.81766452 15 -19 15 C-19 14.34 -19 13.68 -19 13 C-16.79784225 11.45640364 -14.60322696 10.02552438 -12.3125 8.625 C-7.99514851 5.95722359 -3.90283074 3.26852747 0 0 Z " fill="#329CDA" transform="translate(238,227)"/>
<path d="M0 0 C0 3.56591941 -0.96651176 5.61730702 -2.37890625 8.890625 C-2.88470215 10.06842529 -3.39049805 11.24622559 -3.91162109 12.4597168 C-4.46146231 13.7233412 -5.01176369 14.98676546 -5.5625 16.25 C-6.11811034 17.5322607 -6.67361149 18.81456872 -7.22900391 20.09692383 C-8.80870538 23.73599709 -10.40241489 27.36874217 -12 31 C-12.38236816 31.87124512 -12.76473633 32.74249023 -13.15869141 33.64013672 C-17.63117275 43.76136864 -21.91149099 53.29181478 -31 60 C-31.495 58.515 -31.495 58.515 -32 57 C-30.625 55.5 -30.625 55.5 -29 54 C-28.34 54 -27.68 54 -27 54 C-27 53.34 -27 52.68 -27 52 C-27.33 51.67 -27.66 51.34 -28 51 C-25.36 45.72 -22.72 40.44 -20 35 C-19.34 35 -18.68 35 -18 35 C-17.938125 33.824375 -17.938125 33.824375 -17.875 32.625 C-16.85787986 28.41121657 -15.04837844 25.57284022 -12.76171875 21.9296875 C-10.73956162 18.56689848 -8.94372672 15.13196809 -7.1875 11.625 C-6.31158203 9.88089844 -6.31158203 9.88089844 -5.41796875 8.1015625 C-3.95408551 5.19060547 -3.95408551 5.19060547 -3.48828125 2.6484375 C-3.32714844 2.10445313 -3.16601562 1.56046875 -3 1 C-2.01 0.67 -1.02 0.34 0 0 Z " fill="#4CA3D0" transform="translate(352,299)"/>
<path d="M0 0 C0.66 0 1.32 0 2 0 C4.35548401 3.68044376 4.27113148 6.70189937 4 11 C2.85546875 14.3046875 2.85546875 14.3046875 1.1875 17.875 C0.54465816 19.27562218 -0.09719896 20.67669658 -0.73828125 22.078125 C-1.27509521 23.23731445 -1.27509521 23.23731445 -1.82275391 24.41992188 C-3.13800851 27.30246245 -4.40603455 30.2031023 -5.66796875 33.109375 C-10.49549929 44.22577434 -15.37176462 55.2621721 -21 66 C-21.33 66 -21.66 66 -22 66 C-21.67 62.04 -21.34 58.08 -21 54 C-20.34 54 -19.68 54 -19 54 C-18.18243762 51.93950145 -17.37115266 49.87651147 -16.5625 47.8125 C-16.11003906 46.66394531 -15.65757812 45.51539063 -15.19140625 44.33203125 C-14.18739284 41.52408554 -13.56676448 38.91181753 -13 36 C-12.54625 35.401875 -12.0925 34.80375 -11.625 34.1875 C-9.09886287 30.78693079 -7 26.29970195 -7 22 C-5.38461538 18.19230769 -5.38461538 18.19230769 -3 17 C-1.86649466 14.98330173 -1.86649466 14.98330173 -1 13 C-0.01 13 0.98 13 2 13 C1.85851011 11.3954444 1.71164314 9.79136233 1.5625 8.1875 C1.48128906 7.29417969 1.40007812 6.40085937 1.31640625 5.48046875 C1.06510233 2.87256441 1.06510233 2.87256441 0 0 Z " fill="#55ACD5" transform="translate(440,87)"/>
<path d="M0 0 C-25.61245206 20 -25.61245206 20 -30 20 C-30 20.66 -30 21.32 -30 22 C-31.63727366 23.21652177 -33.33958607 24.34564018 -35.0625 25.4375 C-40.77912964 29.14686704 -46.27971911 33.07499844 -51.74633789 37.14233398 C-62.33424624 45 -62.33424624 45 -65 45 C-65 45.66 -65 46.32 -65 47 C-70.41176471 51 -70.41176471 51 -73 51 C-72.01 48.03 -72.01 48.03 -71 45 C-69.68 45 -68.36 45 -67 45 C-66.67 44.01 -66.34 43.02 -66 42 C-64.10301228 41.0348659 -62.20090151 40.07793998 -60.26953125 39.18359375 C-57.10722892 37.53440682 -54.43532368 35.402133 -51.6640625 33.171875 C-50 32 -50 32 -48 32 C-48 31.34 -48 30.68 -48 30 C-47.01 30 -46.02 30 -45 30 C-45 29.34 -45 28.68 -45 28 C-42.73168313 26.34376863 -40.3582088 24.91247457 -37.96875 23.4375 C-37.3190625 22.963125 -36.669375 22.48875 -36 22 C-36 21.34 -36 20.68 -36 20 C-35.443125 19.896875 -34.88625 19.79375 -34.3125 19.6875 C-31.56458956 18.87055365 -29.44405332 17.47929543 -27 16 C-26.34 16 -25.68 16 -25 16 C-24.505 14.515 -24.505 14.515 -24 13 C-22.35 12.67 -20.7 12.34 -19 12 C-18.67 11.01 -18.34 10.02 -18 9 C-16.35178756 7.96986723 -14.68496298 6.96885372 -13 6 C-12.67 5.34 -12.34 4.68 -12 4 C-10.0390625 2.67578125 -10.0390625 2.67578125 -7.625 1.3125 C-6.83351563 0.85488281 -6.04203125 0.39726562 -5.2265625 -0.07421875 C-3 -1 -3 -1 0 0 Z " fill="#6ECEFB" transform="translate(249,220)"/>
<path d="M0 0 C1.32 0.33 2.64 0.66 4 1 C5.32 6.61 6.64 12.22 8 18 C8.66 18 9.32 18 10 18 C12.8352113 23.5522888 13.37952295 27.80112515 13 34 C13.99 34.33 14.98 34.66 16 35 C17.08301035 37.29598193 18.07796291 39.63477442 19 42 C19.37125 42.680625 19.7425 43.36125 20.125 44.0625 C22.78484331 49.95215305 22.101144 56.68411916 22 63 C19.69331103 59.53996654 18.51498936 56.00476858 17.20703125 52.09765625 C16.93986298 51.31150436 16.6726947 50.52535248 16.39743042 49.71537781 C15.53179019 47.16575342 14.67210069 44.61416621 13.8125 42.0625 C12.93043937 39.45839936 12.04694217 36.85478952 11.16322327 34.25125122 C10.5819681 32.53874559 10.00118553 30.82607947 9.42088318 29.11325073 C6.95404211 21.83944561 4.42459624 14.58866553 1.8293457 7.35961914 C0 2.21107263 0 2.21107263 0 0 Z " fill="#5C97C3" transform="translate(157,287)"/>
<path d="M0 0 C0.99 0 1.98 0 3 0 C1.70344429 2.74853212 0.27004885 5.12628124 -1.57421875 7.5390625 C-2.32372803 8.52712891 -2.32372803 8.52712891 -3.08837891 9.53515625 C-3.61608887 10.22480469 -4.14379883 10.91445313 -4.6875 11.625 C-8.85512484 17.10694319 -12.8955306 22.62806618 -16.6953125 28.375 C-17.12585938 28.91125 -17.55640625 29.4475 -18 30 C-18.66 30 -19.32 30 -20 30 C-20.24621094 30.71542969 -20.49242187 31.43085938 -20.74609375 32.16796875 C-22.14608788 35.32994926 -23.87870392 37.63725072 -26.0625 40.3125 C-26.77535156 41.19550781 -27.48820313 42.07851563 -28.22265625 42.98828125 C-28.80917969 43.65214844 -29.39570313 44.31601562 -30 45 C-30.33 45 -30.66 45 -31 45 C-31 43.35 -31 41.7 -31 40 C-30.34 40 -29.68 40 -29 40 C-28.896875 39.401875 -28.79375 38.80375 -28.6875 38.1875 C-27.90175967 35.68741714 -27.03081147 34.62464918 -25 33 C-24.34 33 -23.68 33 -23 33 C-22.896875 32.236875 -22.79375 31.47375 -22.6875 30.6875 C-21.95288806 27.81583516 -21.3283935 26.76957906 -19 25 C-18.34 25 -17.68 25 -17 25 C-16.67 23.68 -16.34 22.36 -16 21 C-15.34 21 -14.68 21 -14 21 C-14 19.68 -14 18.36 -14 17 C-12.625 15.25 -12.625 15.25 -11 14 C-10.34 14 -9.68 14 -9 14 C-9.33 13.01 -9.66 12.02 -10 11 C-9.36971413 9.31923769 -8.70211894 7.65204456 -8 6 C-8 5.01 -8 4.02 -8 3 C-5.36 3 -2.72 3 0 3 C0 2.01 0 1.02 0 0 Z " fill="#6F9ABD" transform="translate(248,351)"/>
<path d="M0 0 C4.28465537 1.14954168 7.22591066 2.84698855 10.7421875 5.50390625 C14.82558355 8.20968599 19.29270973 10.22251389 23.6953125 12.3515625 C26.56540588 13.78321664 29.26067796 15.33859005 32 17 C33.76197207 17.91313881 35.53275984 18.80949486 37.3125 19.6875 C38.19550781 20.12449219 39.07851562 20.56148438 39.98828125 21.01171875 C40.65214844 21.33785156 41.31601563 21.66398437 42 22 C40.02 22.99 40.02 22.99 38 24 C37.05125 23.236875 36.1025 22.47375 35.125 21.6875 C32.28849083 19.65335 29.87472068 18.54528853 26.5 17.6875 C17.37421179 15.26236734 9.00190859 9.87735381 1 5 C0.67 5.66 0.34 6.32 0 7 C0 4.69 0 2.38 0 0 Z " fill="#2683C4" transform="translate(190,301)"/>
<path d="M0 0 C-0.94875 0.20625 -1.8975 0.4125 -2.875 0.625 C-6.29166667 1.70833333 -6.29166667 1.70833333 -7.375 5.125 C-7.684375 6.548125 -7.684375 6.548125 -8 8 C-9.65 8.33 -11.3 8.66 -13 9 C-13 8.34 -13 7.68 -13 7 C-20.11532013 9.01347698 -20.11532013 9.01347698 -27 11.6875 C-30 13 -30 13 -32 13 C-32 13.66 -32 14.32 -32 15 C-34.31 14.34 -36.62 13.68 -39 13 C-38 11 -38 11 -35.2277832 9.88671875 C-34.01437256 9.49097656 -32.80096191 9.09523438 -31.55078125 8.6875 C-30.57542671 8.36591919 -30.57542671 8.36591919 -29.58036804 8.0378418 C-27.49331612 7.35150121 -25.40304274 6.6756242 -23.3125 6 C-21.92230003 5.54496074 -20.53232309 5.08923952 -19.14257812 4.6328125 C-16.56944925 3.78870654 -13.99492785 2.9494472 -11.41918945 2.11328125 C-9.16023057 1.37776875 -6.91309118 0.6047895 -4.68041992 -0.20703125 C-2 -1 -2 -1 0 0 Z " fill="#4FB6E4" transform="translate(360,110)"/>
<path d="M0 0 C0 0.66 0 1.32 0 2 C-1.64333504 3.03789581 -3.31243867 4.03567924 -5 5 C-5.66 5.66 -6.32 6.32 -7 7 C-7.99 7 -8.98 7 -10 7 C-10.309375 7.61875 -10.61875 8.2375 -10.9375 8.875 C-13.41754872 13.83509744 -16.10739816 14.42633758 -21.23828125 16.48828125 C-24.41685748 18.22818083 -25.77895052 20.17085736 -28 23 C-30.8046875 24.94921875 -30.8046875 24.94921875 -33.875 26.6875 C-34.88304687 27.26886719 -35.89109375 27.85023438 -36.9296875 28.44921875 C-39.90683457 29.95294316 -42.81236002 31.03419266 -46 32 C-42.13825741 27.60560326 -37.71287199 24.81823063 -32.7578125 21.74609375 C-29.00201495 19.36813128 -25.51662667 16.71336842 -22 14 C-19.94028088 12.43364292 -17.87793671 10.87126074 -15.8125 9.3125 C-14.82894531 8.56613281 -13.84539062 7.81976563 -12.83203125 7.05078125 C-10.28537536 5.20665113 -7.71360402 3.58255562 -5 2 C-2 0 -2 0 0 0 Z " fill="#2A94D6" transform="translate(286,195)"/>
<path d="M0 0 C-0.66 0 -1.32 0 -2 0 C-2 0.66 -2 1.32 -2 2 C-2.72703125 2.21914062 -3.4540625 2.43828125 -4.203125 2.6640625 C-17.91168382 6.62837209 -17.91168382 6.62837209 -29 15 C-29.41434251 17.32031805 -29.74889902 19.65639085 -30 22 C-30.33 22.99 -30.66 23.98 -31 25 C-30.67 25.99 -30.34 26.98 -30 28 C-30.66 28.33 -31.32 28.66 -32 29 C-34.62692745 24.49960491 -34.15604397 20.95200923 -33 16 C-29.04130341 7.42282405 -19.94719456 4.84228726 -11.6875 1.625 C-10.99366211 1.34978516 -10.29982422 1.07457031 -9.58496094 0.79101562 C-3.44451412 -1.50531466 -3.44451412 -1.50531466 0 0 Z " fill="#76C1DD" transform="translate(88,204)"/>
<path d="M0 0 C0.66 0 1.32 0 2 0 C2.33 1.65 2.66 3.3 3 5 C3.66 5 4.32 5 5 5 C5.34933594 5.92683594 5.69867188 6.85367187 6.05859375 7.80859375 C6.51363281 9.00613281 6.96867188 10.20367187 7.4375 11.4375 C7.88996094 12.63246094 8.34242188 13.82742188 8.80859375 15.05859375 C9.7144826 17.84445723 9.7144826 17.84445723 11 19 C11.23678716 21.69235776 11.42198025 24.36498156 11.5625 27.0625 C11.60568359 27.82111328 11.64886719 28.57972656 11.69335938 29.36132812 C11.79973633 31.24065438 11.90039934 33.12030244 12 35 C7.07478313 25.57686817 0 10.81021218 0 0 Z " fill="#4F8ABA" transform="translate(179,350)"/>
<path d="M0 0 C1.32 0.66 2.64 1.32 4 2 C4.19754468 6.541288 4.38126885 11.08303403 4.5625 15.625 C4.61857422 16.91019531 4.67464844 18.19539063 4.73242188 19.51953125 C4.78076172 20.76347656 4.82910156 22.00742187 4.87890625 23.2890625 C4.9260376 24.43068848 4.97316895 25.57231445 5.02172852 26.74853516 C5.0003519 29.94734186 4.61639045 32.86616304 4 36 C3.67 36 3.34 36 3 36 C2.40048839 31.83895386 1.81292889 27.6764413 1.23608398 23.51220703 C1.03846524 22.09768985 0.83766509 20.68361317 0.63354492 19.27001953 C0.33963082 17.23058626 0.05743548 15.18980942 -0.22265625 13.1484375 C-0.39547119 11.92302246 -0.56828613 10.69760742 -0.74633789 9.43505859 C-0.99529743 6.06368155 -0.70750241 3.29286166 0 0 Z " fill="#2679BF" transform="translate(191,306)"/>
<path d="M0 0 C0.33 0 0.66 0 1 0 C1.65597626 6.29737206 0.84099118 10.24495954 -2.61328125 15.56640625 C-3.07089844 16.03949219 -3.52851563 16.51257813 -4 17 C-4.99 17 -5.98 17 -7 17 C-7.10441406 17.85980469 -7.20882813 18.71960938 -7.31640625 19.60546875 C-8.04877354 23.24219547 -9.25704192 26.01321432 -10.9375 29.3125 C-11.46214844 30.36050781 -11.98679687 31.40851563 -12.52734375 32.48828125 C-14 35 -14 35 -16 36 C-14.06852489 29.56174964 -11.49264018 23.84149798 -8.421875 17.8671875 C-6.65757655 14.30950877 -5.3141413 10.74530272 -4 7 C-3.33933281 5.33094605 -2.67561748 3.6630584 -2 2 C-1.34 2 -0.68 2 0 2 C0 1.34 0 0.68 0 0 Z " fill="#4BA3D2" transform="translate(356,283)"/>
<path d="M0 0 C0.33 0 0.66 0 1 0 C0.59882243 7.16976325 -2.51583561 13.0284744 -5.5625 19.4375 C-6.34270508 21.1071582 -6.34270508 21.1071582 -7.13867188 22.81054688 C-8.41757546 25.54434995 -9.70485465 28.27386379 -11 31 C-11.33 31 -11.66 31 -12 31 C-12.33266291 24.79029227 -11.45029331 20.71735105 -9 15 C-8.34 15 -7.68 15 -7 15 C-6.79503906 14.37351562 -6.59007812 13.74703125 -6.37890625 13.1015625 C-6.10949219 12.28429687 -5.84007812 11.46703125 -5.5625 10.625 C-5.29566406 9.81289063 -5.02882813 9.00078125 -4.75390625 8.1640625 C-4 6 -4 6 -3 4 C-2.34 4 -1.68 4 -1 4 C-0.67 2.68 -0.34 1.36 0 0 Z " fill="#62A8CE" transform="translate(369,258)"/>
<path d="M0 0 C0 3.67200002 -1.07582982 5.89860623 -2.51953125 9.27734375 C-2.77876877 9.88510147 -3.03800629 10.49285919 -3.30509949 11.11903381 C-3.85478061 12.4036632 -4.4072029 13.68712264 -4.9621582 14.96948242 C-5.80647113 16.92354687 -6.63914498 18.8822763 -7.47070312 20.84179688 C-8.00711658 22.09144479 -8.54420427 23.34080354 -9.08203125 24.58984375 C-9.56905518 25.72284912 -10.0560791 26.85585449 -10.55786133 28.02319336 C-11.82912596 30.64728843 -13.15333834 32.75848054 -15 35 C-14.93949923 33.10330073 -14.85057883 31.20749667 -14.75 29.3125 C-14.70359375 28.25675781 -14.6571875 27.20101563 -14.609375 26.11328125 C-13.87807851 22.37710621 -12.45291967 20.86693334 -10 18 C-8.87356051 15.84472819 -7.81184798 13.65456249 -6.8125 11.4375 C-6.04873047 9.76494141 -6.04873047 9.76494141 -5.26953125 8.05859375 C-3.96002889 5.17235592 -3.96002889 5.17235592 -3.51171875 2.66015625 C-3.34285156 2.11230469 -3.17398437 1.56445312 -3 1 C-2.01 0.67 -1.02 0.34 0 0 Z " fill="#52A2CA" transform="translate(352,299)"/>
<path d="M0 0 C-1 3 -1 3 -2.71484375 3.94921875 C-10.1076611 6.40482943 -17.38927375 7.029527 -25 5 C-25.33 3.68 -25.66 2.36 -26 1 C-24.08574219 1.01740234 -24.08574219 1.01740234 -22.1328125 1.03515625 C-20.46354313 1.04453417 -18.79427217 1.05363437 -17.125 1.0625 C-16.28324219 1.07087891 -15.44148438 1.07925781 -14.57421875 1.08789062 C-13.76855469 1.09111328 -12.96289062 1.09433594 -12.1328125 1.09765625 C-11.38918457 1.10289307 -10.64555664 1.10812988 -9.87939453 1.11352539 C-6.46594043 0.90733467 -3.64984567 -0.07934447 0 0 Z " fill="#3D83B3" transform="translate(320,357)"/>
<path d="M0 0 C0.495 0.99 0.495 0.99 1 2 C0.34 2 -0.32 2 -1 2 C-1 2.66 -1 3.32 -1 4 C-7.46598338 10.46598338 -15.57673819 10.3481901 -24.1887207 10.38378906 C-29.59892402 10.25843147 -32.81035772 9.35171382 -37 6 C-36.67 5.34 -36.34 4.68 -36 4 C-35.12601562 4.32484375 -35.12601562 4.32484375 -34.234375 4.65625 C-26.66418283 7.22725866 -18.86573544 8.80459968 -11.15625 5.9453125 C-8.6989767 4.72390312 -6.35430385 3.40746426 -4 2 C-2.67216818 1.32244198 -1.3405653 0.65200222 0 0 Z " fill="#2994D3" transform="translate(326,349)"/>
<path d="M0 0 C1.32 0.33 2.64 0.66 4 1 C5.32 6.61 6.64 12.22 8 18 C8.66 18 9.32 18 10 18 C12.43425238 22.96993194 13.34615998 26.34605369 13 32 C12.01 31.67 11.02 31.34 10 31 C8.95678711 28.79443359 8.95678711 28.79443359 8.02734375 25.8984375 C7.68509766 24.85042969 7.34285156 23.80242187 6.99023438 22.72265625 C6.64283203 21.61792969 6.29542969 20.51320313 5.9375 19.375 C5.58623047 18.29347656 5.23496094 17.21195312 4.87304688 16.09765625 C3.14871722 10.75842758 1.49529145 5.4078416 0 0 Z " fill="#5D95BE" transform="translate(157,287)"/>
<path d="M0 0 C1.0209375 0.433125 1.0209375 0.433125 2.0625 0.875 C5.32893093 2.12597355 8.62846123 3.07447955 12 4 C12 4.66 12 5.32 12 6 C12.88751953 6.23783203 12.88751953 6.23783203 13.79296875 6.48046875 C19.09525186 8.04606947 22.38991362 9.60020722 26 14 C26.33 14.66 26.66 15.32 27 16 C22.0408068 14.49439205 17.55174216 12.44289196 12.9375 10.125 C12.24333984 9.78597656 11.54917969 9.44695312 10.83398438 9.09765625 C6.8501245 7.10761799 3.28761688 5.06331553 0 2 C0 1.34 0 0.68 0 0 Z " fill="#65A0C5" transform="translate(103,257)"/>
<path d="M0 0 C-1.66666667 1 -3.33333333 2 -5 3 C-6.2065625 3.7734375 -6.2065625 3.7734375 -7.4375 4.5625 C-12.52675075 7.41744554 -17.86817772 8.41931741 -23.5390625 9.4921875 C-26.24715879 10.01535931 -26.24715879 10.01535931 -29.8125 11.125 C-32.7315883 11.92631836 -34.99889274 12.18188529 -38 12 C-34.87611928 10.35366168 -31.70740511 9.10297228 -28.38671875 7.90625 C-27.30326172 7.51566406 -26.21980469 7.12507813 -25.10351562 6.72265625 C-23.97623047 6.31917969 -22.84894531 5.91570312 -21.6875 5.5 C-20.57181641 5.09652344 -19.45613281 4.69304687 -18.30664062 4.27734375 C-2.67536758 -1.33768379 -2.67536758 -1.33768379 0 0 Z " fill="#6FBFE1" transform="translate(398,97)"/>
<path d="M0 0 C0.99 1.0828125 0.99 1.0828125 2 2.1875 C6.07996968 6.2559117 10.7586084 9.36564389 16.3125 10.9375 C19 12 19 12 20.875 15.125 C21.24625 16.07375 21.6175 17.0225 22 18 C17.15165137 16.57226543 13.07986419 14.53186974 8.75 12 C7.81414062 11.46632812 7.81414062 11.46632812 6.859375 10.921875 C4.30321356 9.44547141 2.09638349 8.09638349 0 6 C-0.125 2.875 -0.125 2.875 0 0 Z " fill="#4594C1" transform="translate(57,229)"/>
<path d="M0 0 C1.32 0.66 2.64 1.32 4 2 C-0.75 5 -0.75 5 -3 5 C-3 5.66 -3 6.32 -3 7 C-5.75003034 9.46134618 -8.81832007 11.53379163 -11.8125 13.6875 C-12.64587891 14.30689453 -13.47925781 14.92628906 -14.33789062 15.56445312 C-15.14033203 16.14517578 -15.94277344 16.72589844 -16.76953125 17.32421875 C-17.50792236 17.86135498 -18.24631348 18.39849121 -19.00708008 18.9519043 C-19.99357544 19.47071167 -19.99357544 19.47071167 -21 20 C-21.99 19.67 -22.98 19.34 -24 19 C-21.49288137 16.40334142 -19.07024277 13.91890173 -16 12 C-14.68 12 -13.36 12 -12 12 C-11.773125 11.38125 -11.54625 10.7625 -11.3125 10.125 C-9.61583557 7.3780195 -7.94748289 7.13364727 -5 6 C-4.67 5.01 -4.34 4.02 -4 3 C-1.9375 1.3125 -1.9375 1.3125 0 0 Z " fill="#41B6F4" transform="translate(333,157)"/>
<path d="M0 0 C0 0.66 0 1.32 0 2 C-2.071895 3.62726936 -4.14358012 5.13678901 -6.3125 6.625 C-7.5969278 7.51870739 -8.88077461 8.41325031 -10.1640625 9.30859375 C-10.80891602 9.75702637 -11.45376953 10.20545898 -12.11816406 10.66748047 C-13.86404063 11.90372778 -15.5737223 13.17395611 -17.2734375 14.47265625 C-18.23507812 15.20355469 -19.19671875 15.93445313 -20.1875 16.6875 C-21.04730469 17.35136719 -21.90710938 18.01523438 -22.79296875 18.69921875 C-23.52128906 19.12847656 -24.24960938 19.55773437 -25 20 C-25.99 19.67 -26.98 19.34 -28 19 C-17.5 10 -17.5 10 -14 10 C-13.67 9.01 -13.34 8.02 -13 7 C-10.56640625 5.17578125 -10.56640625 5.17578125 -7.5625 3.3125 C-6.57378906 2.68988281 -5.58507812 2.06726563 -4.56640625 1.42578125 C-2 0 -2 0 0 0 Z " fill="#5EC8FC" transform="translate(278,198)"/>
<path d="M0 0 C-1.134375 0.556875 -2.26875 1.11375 -3.4375 1.6875 C-6.55468831 3.4222876 -6.55468831 3.4222876 -7.9375 6.75 C-7.958125 7.4925 -7.97875 8.235 -8 9 C-10.16967689 9.95465783 -11.56328793 10.14401212 -13.82421875 9.3984375 C-15.5684743 8.64129615 -17.28627131 7.82390802 -19 7 C-15.95355831 3.51310891 -13.32711414 2.09631049 -8.9375 0.6875 C-7.89464844 0.34074219 -6.85179687 -0.00601563 -5.77734375 -0.36328125 C-3 -1 -3 -1 0 0 Z " fill="#51B9E6" transform="translate(224,157)"/>
<path d="M0 0 C3.62513052 0.57440448 6.33133271 1.53404893 9.5 3.375 C10.67755859 4.05175781 10.67755859 4.05175781 11.87890625 4.7421875 C13.40647539 5.64803881 14.92498886 6.56922391 16.4375 7.5 C20.51188264 9.88500447 24.76409124 11.91905842 29 14 C27.02 14.99 27.02 14.99 25 16 C23.5459375 14.8553125 23.5459375 14.8553125 22.0625 13.6875 C18.00425063 10.76023816 13.78507697 9.33461331 9 8 C9 7.01 9 6.02 9 5 C8.071875 4.731875 7.14375 4.46375 6.1875 4.1875 C3.23759634 3.08851629 1.94384814 2.37581439 0 0 Z " fill="#2E95CF" transform="translate(203,309)"/>
<path d="M0 0 C1.2380014 3.57644848 0.74926071 6.33694766 0 10 C-0.66 10 -1.32 10 -2 10 C-2 10.99 -2 11.98 -2 13 C-2.66 13 -3.32 13 -4 13 C-5.485 18.445 -5.485 18.445 -7 24 C-7.99 24 -8.98 24 -10 24 C-10.33 24.99 -10.66 25.98 -11 27 C-11.33 26.34 -11.66 25.68 -12 25 C-10.56422101 21.01172502 -8.80871904 17.60953199 -6.5 14.0625 C-3.99350166 10.18950708 -2.50196917 6.35571059 -1 2 C-0.67 1.34 -0.34 0.68 0 0 Z " fill="#36A8DD" transform="translate(384,220)"/>
<path d="M0 0 C0.66 0.33 1.32 0.66 2 1 C-0.05454118 2.96730591 -2.11785922 4.9236882 -4.1875 6.875 C-5.0547168 7.70837891 -5.0547168 7.70837891 -5.93945312 8.55859375 C-9.1166767 11.53836275 -11.73010596 13.72948539 -16 15 C-16 11 -16 11 -13.875 8.375 C-10.89252109 5.91121308 -8.65171792 5.11139241 -5 4 C-3.26973898 2.52109931 -3.26973898 2.52109931 -2 1 C-1.34 0.67 -0.68 0.34 0 0 Z " fill="#0563B4" transform="translate(405,113)"/>
<path d="M0 0 C0.99 0 1.98 0 3 0 C1.00386732 6.7186905 -1.7291421 12.80734808 -5 19 C-5.33 19 -5.66 19 -6 19 C-5.67 15.04 -5.34 11.08 -5 7 C-4.34 7 -3.68 7 -3 7 C-2.01 4.69 -1.02 2.38 0 0 Z " fill="#55A8D3" transform="translate(424,134)"/>
<path d="M0 0 C0.99 0 1.98 0 3 0 C1.31991577 3.78248472 -1.07838554 6.9692422 -3.5625 10.25 C-3.97435547 10.80429687 -4.38621094 11.35859375 -4.81054688 11.9296875 C-5.84693249 13.30701175 -6.92038579 14.6562923 -8 16 C-8.33 16 -8.66 16 -9 16 C-9 14.35 -9 12.7 -9 11 C-8.34 11 -7.68 11 -7 11 C-6.67 8.69 -6.34 6.38 -6 4 C-4.35 3.67 -2.7 3.34 -1 3 C-0.67 2.01 -0.34 1.02 0 0 Z " fill="#538BBB" transform="translate(214,396)"/>
<path d="M0 0 C-0.598125 0.433125 -1.19625 0.86625 -1.8125 1.3125 C-3.98632845 2.85443573 -3.98632845 2.85443573 -5.3125 4.625 C-7.92995464 6.75774082 -10.71928469 6.69049856 -14 7 C-14 6.34 -14 5.68 -14 5 C-15.98 5.33 -17.96 5.66 -20 6 C-17.28256973 3.28256973 -14.13057954 2.49067114 -10.5625 1.3125 C-9.88123047 1.07466797 -9.19996094 0.83683594 -8.49804688 0.59179688 C-3.36635427 -1.12211809 -3.36635427 -1.12211809 0 0 Z " fill="#6DC5E8" transform="translate(314,126)"/>
<path d="M0 0 C0.33 0.99 0.66 1.98 1 3 C1.66 3 2.32 3 3 3 C3.69918305 5.58067563 4.38461049 8.16372847 5.0625 10.75 C5.26166016 11.47960937 5.46082031 12.20921875 5.66601562 12.9609375 C6.63744407 16.71031044 7.15449387 19.30274238 6 23 C5.20640264 20.6464689 4.41508217 18.29221117 3.625 15.9375 C3.40328125 15.28072266 3.1815625 14.62394531 2.953125 13.94726562 C1.51693981 9.65983043 0.21224953 5.3561677 -1 1 C-0.67 0.67 -0.34 0.34 0 0 Z " fill="#76A3C7" transform="translate(192,384)"/>
<path d="M0 0 C-1.43570266 0.81567174 -2.87363434 1.62742093 -4.3125 2.4375 C-5.11300781 2.88996094 -5.91351563 3.34242187 -6.73828125 3.80859375 C-10.66949264 5.87943913 -13.63344771 6 -18 6 C-18.33 6.33 -18.66 6.66 -19 7 C-20.66617115 7.04063832 -22.33388095 7.042721 -24 7 C-21.84735525 4.84735525 -20.66056854 4.40197007 -17.8125 3.5 C-17.01328125 3.24476562 -16.2140625 2.98953125 -15.390625 2.7265625 C-13.28667778 2.08712756 -11.17912499 1.47085661 -9.0625 0.875 C-2.92682927 -0.87804878 -2.92682927 -0.87804878 0 0 Z " fill="#3EAFDF" transform="translate(378,106)"/>
<path d="M0 0 C-1.7873962 1.33905267 -3.58004953 2.67109066 -5.375 4 C-6.37273437 4.7425 -7.37046875 5.485 -8.3984375 6.25 C-11 8 -11 8 -13 8 C-13 8.66 -13 9.32 -13 10 C-14.65 9.67 -16.3 9.34 -18 9 C-18 8.34 -18 7.68 -18 7 C-16.88625 6.54625 -15.7725 6.0925 -14.625 5.625 C-11.03800992 4.27534014 -11.03800992 4.27534014 -9 2 C-3.4921875 -1.1640625 -3.4921875 -1.1640625 0 0 Z " fill="#73CEFC" transform="translate(175,273)"/>
<path d="M0 0 C3.86252257 0.75529526 7.20180367 2.39484772 10.75 4.0625 C11.92046875 4.61035156 13.0909375 5.15820312 14.296875 5.72265625 C15.18890625 6.14417969 16.0809375 6.56570313 17 7 C17 7.66 17 8.32 17 9 C17.66 9 18.32 9 19 9 C19 9.99 19 10.98 19 12 C15.52388959 11.70204768 14.22669243 11.23298945 11.75 8.6875 C8.23843351 5.25574184 4.52364056 3.76412127 0 2 C0 1.34 0 0.68 0 0 Z " fill="#2C91CA" transform="translate(115,261)"/>
<path d="M0 0 C-1.32 0.33 -2.64 0.66 -4 1 C-4 1.66 -4 2.32 -4 3 C-10.27087737 6.71607548 -14.75460274 7.53449652 -22 7 C-19.03496487 4.03496487 -15.47036557 3.18396397 -11.5625 1.8125 C-10.78583984 1.52697266 -10.00917969 1.24144531 -9.20898438 0.94726562 C-8.46068359 0.68236328 -7.71238281 0.41746094 -6.94140625 0.14453125 C-6.25763916 -0.09934326 -5.57387207 -0.34321777 -4.86938477 -0.59448242 C-3 -1 -3 -1 0 0 Z " fill="#94D5EB" transform="translate(186,170)"/>
<path d="M0 0 C4.82665726 4.82665726 6 14.36196015 6 21 C5.34 21 4.68 21 4 21 C1.64073796 18.64073796 1.66842602 17.87599311 1.3671875 14.6484375 C1.28339844 13.79765625 1.19960937 12.946875 1.11328125 12.0703125 C1.03464844 11.18085938 0.95601562 10.29140625 0.875 9.375 C0.78863281 8.4778125 0.70226562 7.580625 0.61328125 6.65625 C0.4009076 4.4381252 0.19682915 2.21954931 0 0 Z " fill="#165DA6" transform="translate(189,366)"/>
<path d="M0 0 C0.66 0 1.32 0 2 0 C4.27780882 3.55907628 4.74402907 6.90422831 4 11 C2.52984738 15.09286392 0.816148 19.0498781 -1 23 C-1.33 23 -1.66 23 -2 23 C-2 20.03 -2 17.06 -2 14 C-0.68 13.67 0.64 13.34 2 13 C1.85851011 11.3954444 1.71164314 9.79136233 1.5625 8.1875 C1.48128906 7.29417969 1.40007812 6.40085937 1.31640625 5.48046875 C1.06510233 2.87256441 1.06510233 2.87256441 0 0 Z " fill="#75B9D7" transform="translate(440,87)"/>
<path d="M0 0 C0.99 0.33 1.98 0.66 3 1 C4.6515356 5.5875989 5.40881961 10.17202681 6 15 C5.01 15 4.02 15 3 15 C2.67 13.35 2.34 11.7 2 10 C1.34 10 0.68 10 0 10 C0 6.7 0 3.4 0 0 Z " fill="#1C68B3" transform="translate(179,340)"/>
<path d="M0 0 C-0.66 0 -1.32 0 -2 0 C-2 0.66 -2 1.32 -2 2 C-16.75088219 8.00961867 -16.75088219 8.00961867 -24 6 C-20.56744035 4.79786867 -17.12828802 3.61585206 -13.6875 2.4375 C-12.71103516 2.09525391 -11.73457031 1.75300781 -10.72851562 1.40039062 C-9.79072266 1.08134766 -8.85292969 0.76230469 -7.88671875 0.43359375 C-7.02264404 0.13509521 -6.15856934 -0.16340332 -5.26831055 -0.47094727 C-3 -1 -3 -1 0 0 Z " fill="#97D4E7" transform="translate(120,193)"/>
<path d="M0 0 C0.99 0 1.98 0 3 0 C1.62845496 2.95409701 0.01136276 5.44008376 -2 8 C-3.32 7.67 -4.64 7.34 -6 7 C-6.33 8.32 -6.66 9.64 -7 11 C-7.66 10.67 -8.32 10.34 -9 10 C-8.67 7.69 -8.34 5.38 -8 3 C-5.36 3 -2.72 3 0 3 C0 2.01 0 1.02 0 0 Z " fill="#3172AC" transform="translate(248,351)"/>
<path d="M0 0 C3.83416312 0.69796659 6.85965939 2.43656509 10.25 4.3125 C15.12201668 6.9819477 20.01218026 9.55499032 25 12 C21.54335008 13.15221664 20.44216779 12.63813328 17.23828125 11.15625 C3.7106943 4.16817716 3.7106943 4.16817716 0 0 Z " fill="#3099D1" transform="translate(232,324)"/>
<path d="M0 0 C1.258125 0.12375 2.51625 0.2475 3.8125 0.375 C4.87404297 0.47941406 4.87404297 0.47941406 5.95703125 0.5859375 C8 1 8 1 11 3 C12.65549531 3.38499891 14.3222433 3.72793135 16 4 C16.33 5.32 16.66 6.64 17 8 C12.76677156 7.37954537 9.47709705 5.89476441 5.6875 3.9375 C4.61886719 3.38964844 3.55023438 2.84179688 2.44921875 2.27734375 C1.64097656 1.85582031 0.83273437 1.43429687 0 1 C0 0.67 0 0.34 0 0 Z " fill="#4A89B6" transform="translate(278,353)"/>
<path d="M0 0 C0.99 0.33 1.98 0.66 3 1 C1.97137215 6.44567686 0.75385216 11.11817117 -2 16 C-2.33 16 -2.66 16 -3 16 C-3.33266291 9.79029227 -2.45029331 5.71735105 0 0 Z " fill="#54A7D0" transform="translate(360,273)"/>
<path d="M0 0 C0.33 0 0.66 0 1 0 C0.70684909 2.34520724 0.37633599 4.66759204 0 7 C-0.11085938 7.71800781 -0.22171875 8.43601563 -0.3359375 9.17578125 C-0.75 11.3125 -0.75 11.3125 -2 15 C-4.625 16.5 -4.625 16.5 -7 17 C-6.37954537 12.76677156 -4.89476441 9.47709705 -2.9375 5.6875 C-2.38964844 4.61886719 -1.84179688 3.55023438 -1.27734375 2.44921875 C-0.64505859 1.23685547 -0.64505859 1.23685547 0 0 Z " fill="#3CA4D9" transform="translate(401,183)"/>
<path d="M0 0 C-0.99 0 -1.98 0 -3 0 C-3.33 0.99 -3.66 1.98 -4 3 C-9.32905617 5.52428977 -15.20147539 5.60792894 -21 6 C-18.29517875 3.29517875 -15.17456319 2.4923264 -11.625 1.3125 C-10.95210938 1.07466797 -10.27921875 0.83683594 -9.5859375 0.59179688 C-3.46053366 -1.46407193 -3.46053366 -1.46407193 0 0 Z " fill="#8CD1E8" transform="translate(277,139)"/>
<path d="M0 0 C1.4540625 0.0309375 1.4540625 0.0309375 2.9375 0.0625 C1.11078621 2.60176173 -0.73127878 4.9675512 -3.0625 7.0625 C-6.4375 7.5 -6.4375 7.5 -9.0625 7.0625 C-9.3925 6.0725 -9.7225 5.0825 -10.0625 4.0625 C-9.093125 3.588125 -8.12375 3.11375 -7.125 2.625 C-2.0625 0.04209184 -2.0625 0.04209184 0 0 Z " fill="#36B1E8" transform="translate(401.0625,95.9375)"/>
<path d="M0 0 C0.33 0.99 0.66 1.98 1 3 C1.66 3 2.32 3 3 3 C3.309375 3.639375 3.61875 4.27875 3.9375 4.9375 C4.8345163 6.93610821 4.8345163 6.93610821 6 8 C6.1875 11.4375 6.1875 11.4375 6 15 C5.34 15.66 4.68 16.32 4 17 C3.32389577 15.10751181 2.65949561 13.2108398 2 11.3125 C1.62875 10.25675781 1.2575 9.20101563 0.875 8.11328125 C0.0608143 5.21637944 -0.17709796 2.98299377 0 0 Z " fill="#1D7AC2" transform="translate(161,288)"/>
<path d="M0 0 C-0.33 0.99 -0.66 1.98 -1 3 C-7.30705015 5.63544596 -14.23885868 6.44580809 -21 7 C-18.29646988 4.29646988 -15.17811781 3.53245504 -11.625 2.375 C-10.95210937 2.14554688 -10.27921875 1.91609375 -9.5859375 1.6796875 C-6.18112992 0.55368814 -3.62604845 0 0 0 Z " fill="#8DCDE6" transform="translate(164,177)"/>
<path d="M0 0 C0 0.66 0 1.32 0 2 C-0.94875 2.28875 -1.8975 2.5775 -2.875 2.875 C-6.05211578 3.76825109 -6.05211578 3.76825109 -8 6 C-10.68839385 6.26991906 -13.29141936 6.08737357 -16 6 C-16 5.34 -16 4.68 -16 4 C-14.08594633 3.32586789 -12.16863974 2.6609668 -10.25 2 C-9.18265625 1.62875 -8.1153125 1.2575 -7.015625 0.875 C-4 0 -4 0 0 0 Z M-5 3 C-4.34 3.66 -3.68 4.32 -3 5 C-3.66 5 -4.32 5 -5 5 C-5 4.34 -5 3.68 -5 3 Z " fill="#3DACDD" transform="translate(424,89)"/>
<path d="M0 0 C2.64 0 5.28 0 8 0 C8 0.99 8 1.98 8 3 C8.78375 3.144375 9.5675 3.28875 10.375 3.4375 C13 4 13 4 15 5 C15 5.66 15 6.32 15 7 C15.66 7 16.32 7 17 7 C17 7.66 17 8.32 17 9 C10.60390057 7.1279709 5.21383402 4.17106721 0 0 Z " fill="#7FAFCB" transform="translate(261,344)"/>
<path d="M0 0 C0 2.96335165 -0.35466068 4.1666533 -1.53125 6.79296875 C-1.84707031 7.50517578 -2.16289062 8.21738281 -2.48828125 8.95117188 C-2.82214844 9.68916016 -3.15601563 10.42714844 -3.5 11.1875 C-4.00080078 12.31188477 -4.00080078 12.31188477 -4.51171875 13.45898438 C-5.33620915 15.30819856 -6.16746041 17.15439566 -7 19 C-7.33 19 -7.66 19 -8 19 C-8.49456314 14.05436862 -7.3260355 11.13034294 -4.97265625 6.9296875 C-3.90465129 5.02200823 -3.90465129 5.02200823 -3.55859375 2.8203125 C-3.28208984 1.91925781 -3.28208984 1.91925781 -3 1 C-2.01 0.67 -1.02 0.34 0 0 Z " fill="#77B4CE" transform="translate(352,299)"/>
<path d="M0 0 C8.95859592 2.18222208 8.95859592 2.18222208 11.5625 6.1875 C12.036875 7.115625 12.51125 8.04375 13 9 C8.39024 7.68292571 4.81142658 5.92504831 1 3 C0.67 2.01 0.34 1.02 0 0 Z " fill="#5193C0" transform="translate(117,264)"/>
<path d="M0 0 C0.66 0.33 1.32 0.66 2 1 C0.62968895 6.65253308 -3.67689413 9.5113541 -8 13 C-8.33 12.01 -8.66 11.02 -9 10 C-7.625 8.5 -7.625 8.5 -6 7 C-5.34 7 -4.68 7 -4 7 C-4 6.34 -4 5.68 -4 5 C-3.34 5 -2.68 5 -2 5 C-1.34 3.35 -0.68 1.7 0 0 Z " fill="#73A8C9" transform="translate(329,346)"/>
<path d="M0 0 C1.75 0.875 1.75 0.875 2.75 2.875 C2.193125 2.91625 1.63625 2.9575 1.0625 3 C-2.46989134 4.33658051 -3.93154939 6.92994112 -6.25 9.875 C-6.58 9.875 -6.91 9.875 -7.25 9.875 C-7.5625 7.125 -7.5625 7.125 -7.25 3.875 C-3.49390244 -0.19410569 -3.49390244 -0.19410569 0 0 Z " fill="#779EC1" transform="translate(258.25,341.125)"/>
<path d="M0 0 C1 2 1 2 0.36328125 4.1015625 C-6.06158358 19.53079179 -6.06158358 19.53079179 -9 21 C-6.76686274 13.55620912 -3.59727921 6.88023305 0 0 Z " fill="#3AA4DA" transform="translate(349,298)"/>
<path d="M0 0 C-2.28560647 1.5306999 -4.57762667 3.04965044 -6.875 4.5625 C-7.52597656 5.00013672 -8.17695313 5.43777344 -8.84765625 5.88867188 C-10.52625497 6.98754836 -12.26023387 8.0007818 -14 9 C-14.66 8.67 -15.32 8.34 -16 8 C-6.20408163 -2.06802721 -6.20408163 -2.06802721 0 0 Z " fill="#2C95D4" transform="translate(203,257)"/>
<path d="M0 0 C0.66 0 1.32 0 2 0 C0.50198648 3.61477175 -1.57537417 5.68620463 -4.5 8.25 C-5.2940625 8.95640625 -6.088125 9.6628125 -6.90625 10.390625 C-9 12 -9 12 -11 12 C-10.67 11.01 -10.34 10.02 -10 9 C-9.34 9 -8.68 9 -8 9 C-7.9175 8.401875 -7.835 7.80375 -7.75 7.1875 C-6.77705573 4.34974589 -5.55550687 3.50323933 -3 2 C-2.01 2 -1.02 2 0 2 C0 1.34 0 0.68 0 0 Z " fill="#0562B4" transform="translate(300,203)"/>
<path d="M0 0 C0.66 0 1.32 0 2 0 C0.51154587 3.5610865 -1.5000687 5.6420874 -4.375 8.1875 C-5.14585937 8.88230469 -5.91671875 9.57710937 -6.7109375 10.29296875 C-8.91278842 11.93496338 -10.31982886 12.59001948 -13 13 C-11.549046 9.17475764 -9.61818068 7.80909034 -6 6 C-5.34 6 -4.68 6 -4 6 C-3.67 4.68 -3.34 3.36 -3 2 C-2.34 2 -1.68 2 -1 2 C-0.67 1.34 -0.34 0.68 0 0 Z " fill="#0663B4" transform="translate(316,189)"/>
<path d="M0 0 C-0.495 0.45375 -0.99 0.9075 -1.5 1.375 C-3.22609337 2.87635519 -3.22609337 2.87635519 -3 5 C-5.3125 5.6875 -5.3125 5.6875 -8 6 C-9.8125 4.6875 -9.8125 4.6875 -11 3 C-11 2.34 -11 1.68 -11 1 C-9.5437328 0.63743142 -8.08488815 0.28520207 -6.625 -0.0625 C-5.40683594 -0.35833984 -5.40683594 -0.35833984 -4.1640625 -0.66015625 C-2 -1 -2 -1 0 0 Z " fill="#3EB3E9" transform="translate(285,138)"/>
<path d="M0 0 C3.73678306 4.71159603 4.11284843 8.01903338 4 14 C3.01 13.67 2.02 13.34 1 13 C-0.00496852 9.98509443 -0.10335303 7.95818308 -0.0625 4.8125 C-0.05347656 3.91144531 -0.04445312 3.01039063 -0.03515625 2.08203125 C-0.02355469 1.39496094 -0.01195312 0.70789063 0 0 Z " fill="#4285B9" transform="translate(166,305)"/>
<path d="M0 0 C0.33 0 0.66 0 1 0 C0.67 2.64 0.34 5.28 0 8 C0.66 8.33 1.32 8.66 2 9 C1.01 10.485 1.01 10.485 0 12 C-0.60460086 15.3857648 -1 18.56062308 -1 22 C-2.54296875 20.82421875 -2.54296875 20.82421875 -4 19 C-3.92578125 16.58203125 -3.92578125 16.58203125 -3.3125 13.8125 C-3.10496094 12.843125 -2.89742187 11.87375 -2.68359375 10.875 C-2.45800781 9.92625 -2.23242188 8.9775 -2 8 C-1.70802734 6.7625 -1.70802734 6.7625 -1.41015625 5.5 C-0.96040048 3.66158225 -0.48336169 1.82986927 0 0 Z " fill="#4A8DC3" transform="translate(203,392)"/>
<path d="M0 0 C4.14673744 0.60981433 7.28555016 2.10325966 11 4 C11.721875 4.144375 12.44375 4.28875 13.1875 4.4375 C15.75264765 5.2335803 16.58036674 6.79956845 18 9 C14.88200997 8.24964259 11.81929597 7.36636589 8.75 6.4375 C7.85796875 6.16808594 6.9659375 5.89867187 6.046875 5.62109375 C5.37140625 5.41613281 4.6959375 5.21117187 4 5 C4 4.34 4 3.68 4 3 C3.34 3 2.68 3 2 3 C2 2.34 2 1.68 2 1 C1.34 0.67 0.68 0.34 0 0 Z " fill="#2780BA" transform="translate(274,348)"/>
<path d="M0 0 C4.04177791 0.74319846 7.54952815 2.60920504 11.1875 4.4375 C11.82880859 4.75009766 12.47011719 5.06269531 13.13085938 5.38476562 C17.87788639 7.75577278 17.87788639 7.75577278 19 10 C12.36185667 8.32686142 6.42799579 6.29421077 1 2 C0.67 1.34 0.34 0.68 0 0 Z " fill="#2B99D7" transform="translate(61,233)"/>
<path d="M0 0 C0.99 0.33 1.98 0.66 3 1 C2.54177532 4.46941546 2.10868317 7.67395049 1 11 C1.33 11.99 1.66 12.98 2 14 C1.01 14.495 1.01 14.495 0 15 C-1.86122475 11.87656536 -2.1853192 9.9616974 -1.6875 6.375 C-1.58824219 5.59898437 -1.48898438 4.82296875 -1.38671875 4.0234375 C-1 2 -1 2 0 0 Z " fill="#79B7D4" transform="translate(56,218)"/>
<path d="M0 0 C-0.66 0 -1.32 0 -2 0 C-2 0.66 -2 1.32 -2 2 C-4.90548882 4.04169485 -6.40142046 5 -10 5 C-9.01906046 2.54765115 -8.31296172 1.2190732 -6.125 -0.3125 C-3.64990694 -1.1132654 -2.41712366 -0.86325845 0 0 Z M-16 6 C-14.35 6 -12.7 6 -11 6 C-11.33 6.99 -11.66 7.98 -12 9 C-13.32 8.34 -14.64 7.68 -16 7 C-16 6.67 -16 6.34 -16 6 Z " fill="#33B4E9" transform="translate(318,126)"/>
<path d="M0 0 C0.33 0 0.66 0 1 0 C1.96205088 6.37358711 2.10655578 12.55929529 2 19 C-0.64904866 15.02642701 -2.31494346 11.41584676 -1.6796875 6.54296875 C-1.1862915 4.33658525 -0.63917926 2.16829273 0 0 Z " fill="#04458E" transform="translate(197,376)"/>
<path d="M0 0 C0.33 0.66 0.66 1.32 1 2 C-0.33333333 3.33333333 -1.66666667 4.66666667 -3 6 C-3.8840137 7.03402815 -4.75858501 8.07618185 -5.625 9.125 C-6.40875 10.07375 -7.1925 11.0225 -8 12 C-9.32 11.34 -10.64 10.68 -12 10 C-10.56458334 8.70601853 -9.12658648 7.41489889 -7.6875 6.125 C-6.88699219 5.40570313 -6.08648437 4.68640625 -5.26171875 3.9453125 C-3 2 -3 2 0 0 Z " fill="#42AFF0" transform="translate(313,195)"/>
<path d="M0 0 C1.45703125 0.98828125 1.45703125 0.98828125 3 3 C3.37674518 5.79251583 3.60191941 8.38779201 3.6875 11.1875 C3.72166016 11.93708984 3.75582031 12.68667969 3.79101562 13.45898438 C3.87334294 15.30546838 3.93835281 17.15270994 4 19 C1.75084573 14.50169146 0.78776604 11.47887665 0.4375 6.375 C0.35371094 5.18648438 0.26992187 3.99796875 0.18359375 2.7734375 C0.12300781 1.85820312 0.06242188 0.94296875 0 0 Z " fill="#4C88BB" transform="translate(187,366)"/>
<path d="M0 0 C0.66 0.66 1.32 1.32 2 2 C1.6730244 4.61580479 1.17960932 6.64078137 0 9 C-0.99 9 -1.98 9 -3 9 C-4.68798827 10.43750191 -4.68798827 10.43750191 -6 12 C-6.66 11.67 -7.32 11.34 -8 11 C-5.66666667 8.66666667 -3.33333333 6.33333333 -1 4 C-0.3574765 1.93125966 -0.3574765 1.93125966 0 0 Z " fill="#52A1CD" transform="translate(332,338)"/>
<path d="M0 0 C0.66 0 1.32 0 2 0 C0.06375702 6.20477864 -2.25609141 12.10825719 -5 18 C-6.03311995 14.8587569 -5.99963588 13.1755817 -4.75 10.125 C-4.47027344 9.43664062 -4.19054687 8.74828125 -3.90234375 8.0390625 C-2.69430206 5.30920205 -1.38747945 2.642818 0 0 Z " fill="#64A8CD" transform="translate(406,176)"/>
<path d="M0 0 C0.33 0 0.66 0 1 0 C1 1.98 1 3.96 1 6 C0.34 6 -0.32 6 -1 6 C-1.103125 6.78375 -1.20625 7.5675 -1.3125 8.375 C-2 11 -2 11 -5 13 C-5 10.69 -5 8.38 -5 6 C-4.34 6 -3.68 6 -3 6 C-2.01 4.02 -1.02 2.04 0 0 Z " fill="#36A5DD" transform="translate(407,170)"/>
<path d="M0 0 C-0.61469144 3.41153748 -1.89511054 5.51769156 -4 8.25 C-4.53625 8.95640625 -5.0725 9.6628125 -5.625 10.390625 C-6.07875 10.92171875 -6.5325 11.4528125 -7 12 C-7.33 12 -7.66 12 -8 12 C-8 10.35 -8 8.7 -8 7 C-7.34 7 -6.68 7 -6 7 C-5.896875 6.401875 -5.79375 5.80375 -5.6875 5.1875 C-4.71993159 2.10887325 -3.39245825 0 0 0 Z " fill="#73A2C5" transform="translate(225,384)"/>
<path d="M0 0 C0.66 0.33 1.32 0.66 2 1 C-2.29394021 6.48670138 -4.98951234 8.83158539 -12 10 C-8.40945767 6.11024581 -4.26101118 3.10267805 0 0 Z " fill="#2592D5" transform="translate(298,185)"/>
<path d="M0 0 C2.36585366 7.09756098 2.36585366 7.09756098 1.0625 10.3125 C0.5365625 11.1478125 0.5365625 11.1478125 0 12 C-0.99 12 -1.98 12 -3 12 C-2.88601335 10.37419034 -2.75844341 8.74932843 -2.625 7.125 C-2.55539062 6.22007812 -2.48578125 5.31515625 -2.4140625 4.3828125 C-2 2 -2 2 0 0 Z " fill="#50B1E0" transform="translate(428,122)"/>
<path d="M0 0 C-5.77874846 3.25711277 -10.37822074 4.69343615 -17 5 C-14.51737568 2.51737568 -12.38224713 1.92713025 -9.0625 0.8125 C-8.00160156 0.44769531 -6.94070312 0.08289063 -5.84765625 -0.29296875 C-3 -1 -3 -1 0 0 Z " fill="#92D4E9" transform="translate(224,157)"/>
<path d="M0 0 C5.61721366 1.99320485 11.7543927 4.7543927 16 9 C10.87851374 8.48785137 6.21386582 6.98956697 2 4 C0.765625 1.86328125 0.765625 1.86328125 0 0 Z " fill="#329BD7" transform="translate(272,344)"/>
<path d="M0 0 C0.66 0.33 1.32 0.66 2 1 C-1.3 3.97 -4.6 6.94 -8 10 C-8.66 9.34 -9.32 8.68 -10 8 C-8.71064081 6.85157077 -7.41843421 5.70633773 -6.125 4.5625 C-5.04605469 3.60537109 -5.04605469 3.60537109 -3.9453125 2.62890625 C-2 1 -2 1 0 0 Z " fill="#0969B6" transform="translate(277,224)"/>
<path d="M0 0 C-0.66 0 -1.32 0 -2 0 C-2.33 0.99 -2.66 1.98 -3 3 C-4.423125 3.2165625 -4.423125 3.2165625 -5.875 3.4375 C-8.8934494 3.82935399 -8.8934494 3.82935399 -11 5 C-13.125 4.0625 -13.125 4.0625 -15 3 C-13.06643218 2.30151736 -11.12797702 1.61655186 -9.1875 0.9375 C-8.10855469 0.55464844 -7.02960938 0.17179688 -5.91796875 -0.22265625 C-3 -1 -3 -1 0 0 Z " fill="#93D7EB" transform="translate(256,146)"/>
<path d="M0 0 C0.66 0.33 1.32 0.66 2 1 C1.57576756 2.46224799 1.13509755 3.91973412 0.6875 5.375 C0.44386719 6.18710937 0.20023437 6.99921875 -0.05078125 7.8359375 C-1 10 -1 10 -4 12 C-3.33501617 7.61110675 -1.81242323 4.0188515 0 0 Z " fill="#5AC5FB" transform="translate(347,296)"/>
<path d="M0 0 C-5.31944433 4.45683174 -10.18848171 4.75759721 -17 5 C-13.86875441 3.36017707 -10.6857317 2.04844701 -7.375 0.8125 C-6.41335938 0.44769531 -5.45171875 0.08289063 -4.4609375 -0.29296875 C-2 -1 -2 -1 0 0 Z " fill="#94D7E8" transform="translate(377,104)"/>
<path d="M0 0 C1.32 0.33 2.64 0.66 4 1 C3.02471263 2.33617352 2.04466681 3.6688751 1.0625 5 C0.51722656 5.7425 -0.02804688 6.485 -0.58984375 7.25 C-1.28787109 8.11625 -1.28787109 8.11625 -2 9 C-2.33 9 -2.66 9 -3 9 C-3 7.35 -3 5.7 -3 4 C-2.34 4 -1.68 4 -1 4 C-0.67 2.68 -0.34 1.36 0 0 Z " fill="#6EA0C4" transform="translate(208,403)"/>
<path d="M0 0 C-3.38168431 3.68006822 -6.42521756 5.9785845 -11 8 C-11 7.34 -11 6.68 -11 6 C-10.01 5.34 -9.02 4.68 -8 4 C-7.67 3.01 -7.34 2.02 -7 1 C-4.53721199 -0.231394 -2.7204945 -0.07159196 0 0 Z " fill="#2490D0" transform="translate(226,239)"/>
<path d="M0 0 C-5.65275661 3.80946641 -10.22613615 4.72740991 -17 5 C-13.97546033 2.98364022 -11.36924652 1.96753498 -7.9375 0.8125 C-6.87402344 0.44769531 -5.81054688 0.08289063 -4.71484375 -0.29296875 C-2 -1 -2 -1 0 0 Z " fill="#A0DEEE" transform="translate(360,110)"/>
<path d="M0 0 C1.32 0.66 2.64 1.32 4 2 C0.37 4.31 -3.26 6.62 -7 9 C-7 8.01 -7 7.02 -7 6 C-6.360625 5.896875 -5.72125 5.79375 -5.0625 5.6875 C-4.381875 5.460625 -3.70125 5.23375 -3 5 C-2.67 4.01 -2.34 3.02 -2 2 C-1.34 2 -0.68 2 0 2 C0 1.34 0 0.68 0 0 Z " fill="#2DA3E6" transform="translate(416,99)"/>
<path d="M0 0 C-0.66 0 -1.32 0 -2 0 C-2 0.66 -2 1.32 -2 2 C-3.41377782 2.36552803 -4.83120576 2.71695495 -6.25 3.0625 C-7.03890625 3.25972656 -7.8278125 3.45695313 -8.640625 3.66015625 C-11.10394822 4.01497267 -12.65604132 3.76877544 -15 3 C-13.25531628 2.29911844 -11.50398839 1.61475991 -9.75 0.9375 C-8.77546875 0.55464844 -7.8009375 0.17179688 -6.796875 -0.22265625 C-3.95992605 -1.01113787 -2.70590448 -1.02437812 0 0 Z " fill="#9ED5E7" transform="translate(88,204)"/>
<path d="M0 0 C0.33 0.66 0.66 1.32 1 2 C-0.33332095 5.99996286 -2.4957827 6.83782337 -6 9 C-6.66 8.34 -7.32 7.68 -8 7 C-5.36 4.69 -2.72 2.38 0 0 Z " fill="#40ADEE" transform="translate(322,187)"/>
<path d="M0 0 C-1.22053859 3.66161578 -2.36782304 4.16270474 -5.5625 6.1875 C-6.38878906 6.71730469 -7.21507812 7.24710938 -8.06640625 7.79296875 C-8.70449219 8.19128906 -9.34257812 8.58960938 -10 9 C-10.66 8.67 -11.32 8.34 -12 8 C-10.37982158 6.66081194 -8.75370657 5.3288031 -7.125 4 C-6.22007812 3.2575 -5.31515625 2.515 -4.3828125 1.75 C-2 0 -2 0 0 0 Z " fill="#54C2FA" transform="translate(291,189)"/>
<path d="M0 0 C0.66 0 1.32 0 2 0 C-0.89066059 9.59453303 -0.89066059 9.59453303 -4 13 C-4 11.02 -4 9.04 -4 7 C-3.34 7 -2.68 7 -2 7 C-1.855625 6.401875 -1.71125 5.80375 -1.5625 5.1875 C-1.1127561 3.43849596 -0.57107659 1.71322977 0 0 Z " fill="#7CBBD5" transform="translate(412,163)"/>
<path d="M0 0 C0.7734375 -0.01417969 1.546875 -0.02835937 2.34375 -0.04296875 C4.5 0.1875 4.5 0.1875 7.5 2.1875 C7.5 2.8475 7.5 3.5075 7.5 4.1875 C6.79875 3.8575 6.0975 3.5275 5.375 3.1875 C0.59538514 1.52502527 -3.64265824 2.04459606 -8.5 3.1875 C-6.74573392 -0.32103216 -3.53538273 0.02946152 0 0 Z " fill="#44A5D1" transform="translate(433.5,85.8125)"/>
<path d="M0 0 C-1 3 -1 3 -2.875 4.25 C-5 5 -5 5 -8 4 C-7.34 4 -6.68 4 -6 4 C-6 3.34 -6 2.68 -6 2 C-6.66 1.67 -7.32 1.34 -8 1 C-5.29120665 -0.35439668 -2.99066732 -0.06501451 0 0 Z " fill="#4E8EBC" transform="translate(320,357)"/>
<path d="M0 0 C3.7910119 1.44950455 7.3874638 3.15172566 11 5 C11 5.33 11 5.66 11 6 C4.62068966 5.50928382 4.62068966 5.50928382 1.5625 3 C0 1 0 1 0 0 Z " fill="#2A97D5" transform="translate(104,255)"/>
<path d="M0 0 C0.66 0.33 1.32 0.66 2 1 C-1.17320782 4.53586014 -3.16743695 6.58578031 -8 7 C-5.42215154 4.35247996 -3.08351902 2.05567935 0 0 Z " fill="#1F8CD1" transform="translate(308,178)"/>
<path d="M0 0 C0.95651196 2.58258228 1.03620881 3.8650399 0.3125 6.5625 C-1.12035293 9.22351258 -2.47085828 10.39821025 -5 12 C-3.68938409 7.76570244 -2.05643741 3.92592596 0 0 Z " fill="#3DA9E1" transform="translate(332,334)"/>
<path d="M0 0 C5.28137429 0.51525603 8.57221156 2.25477117 13 5 C11.125 5.625 11.125 5.625 9 6 C8.34 5.34 7.68 4.68 7 4 C4.68351201 2.96157435 2.35096976 1.9578025 0 1 C0 0.67 0 0.34 0 0 Z " fill="#2E7EB5" transform="translate(252,338)"/>
<path d="M0 0 C0.33 0.99 0.66 1.98 1 3 C1.66 3 2.32 3 3 3 C3.33 4.65 3.66 6.3 4 8 C3.01 8 2.02 8 1 8 C0.34 5.69 -0.32 3.38 -1 1 C-0.67 0.67 -0.34 0.34 0 0 Z " fill="#6397C1" transform="translate(192,384)"/>
<path d="M0 0 C0.99 0.33 1.98 0.66 3 1 C4.1577506 4.47325181 4.06866652 7.36067448 4 11 C1.6870518 8.6870518 1.50419025 7.52095125 0.875 4.375 C0.70742187 3.55773437 0.53984375 2.74046875 0.3671875 1.8984375 C0.24601563 1.27195312 0.12484375 0.64546875 0 0 Z " fill="#84ADCF" transform="translate(184,365)"/>
<path d="M0 0 C5.37305699 0.2642487 5.37305699 0.2642487 8 1 C10 3.5625 10 3.5625 11 6 C6.49197399 4.74194623 3.5087188 3.09592835 0 0 Z " fill="#83B1CF" transform="translate(278,353)"/>
<path d="M0 0 C1.32 0 2.64 0 4 0 C4 0.99 4 1.98 4 3 C1.75 4.1875 1.75 4.1875 -1 5 C-3.3125 3.625 -3.3125 3.625 -5 2 C-3.35 2 -1.7 2 0 2 C0 1.34 0 0.68 0 0 Z " fill="#56A9D3" transform="translate(94,250)"/>
<path d="M0 0 C0 3 0 3 -1.75 4.82421875 C-2.4925 5.43910156 -3.235 6.05398437 -4 6.6875 C-4.7425 7.31011719 -5.485 7.93273437 -6.25 8.57421875 C-6.8275 9.04472656 -7.405 9.51523438 -8 10 C-8.66 9.67 -9.32 9.34 -10 9 C-6.7 6.03 -3.4 3.06 0 0 Z " fill="#48ACEF" transform="translate(272,230)"/>
<path d="M0 0 C-1.36983503 3.16115776 -1.9890638 3.9927092 -5 6 C-5.66 5.67 -6.32 5.34 -7 5 C-6.1875 3.0625 -6.1875 3.0625 -5 1 C-2 0 -2 0 0 0 Z " fill="#086BBA" transform="translate(412,108)"/>
<path d="M0 0 C0.8125 1.6875 0.8125 1.6875 1 4 C-1.4375 6.75 -1.4375 6.75 -4 9 C-4 7.68 -4 6.36 -4 5 C-3.34 5 -2.68 5 -2 5 C-2 3.68 -2 2.36 -2 1 C-1.34 0.67 -0.68 0.34 0 0 Z " fill="#628FB4" transform="translate(236,367)"/>
<path d="M0 0 C0.33 0.66 0.66 1.32 1 2 C0.34 2 -0.32 2 -1 2 C-1 2.66 -1 3.32 -1 4 C-5.625 6.125 -5.625 6.125 -9 5 C-6.03 3.35 -3.06 1.7 0 0 Z " fill="#3399D6" transform="translate(326,349)"/>
<path d="M0 0 C1.98 0.99 1.98 0.99 4 2 C3.01 2.495 3.01 2.495 2 3 C2 5.64 2 8.28 2 11 C-0.32590854 7.36576791 -0.16265833 4.22911669 0 0 Z " fill="#1363A7" transform="translate(194,308)"/>
<path d="M0 0 C0.99 0.33 1.98 0.66 3 1 C0.11912454 3.40072955 -2.56404834 5.47291037 -6 7 C-5.34 5.68 -4.68 4.36 -4 3 C-3.34 3 -2.68 3 -2 3 C-2 2.34 -2 1.68 -2 1 C-1.34 0.67 -0.68 0.34 0 0 Z " fill="#2290D2" transform="translate(174,274)"/>
<path d="M0 0 C5.37305699 0.2642487 5.37305699 0.2642487 8 1 C10 3.5625 10 3.5625 11 6 C6.95743617 4.77782954 3.50711041 3.37245704 0 1 C0 0.67 0 0.34 0 0 Z " fill="#8DBAD4" transform="translate(68,241)"/>
<path d="M0 0 C2 3 2 3 1.7578125 5.48046875 C1.54898437 6.37378906 1.34015625 7.26710937 1.125 8.1875 C0.92132813 9.08855469 0.71765625 9.98960937 0.5078125 10.91796875 C0.25644531 11.94857422 0.25644531 11.94857422 0 13 C-0.66 13 -1.32 13 -2 13 C-1.85915204 11.20793453 -1.71216299 9.41635083 -1.5625 7.625 C-1.48128906 6.62726563 -1.40007812 5.62953125 -1.31640625 4.6015625 C-1 2 -1 2 0 0 Z " fill="#30AAE5" transform="translate(410,157)"/>
<path d="M0 0 C1 3 1 3 1 5 C0.34 5 -0.32 5 -1 5 C-1.33 5.99 -1.66 6.98 -2 8 C-2.66 7.67 -3.32 7.34 -4 7 C-3.43628586 3.73045798 -2.50037734 2.17424117 0 0 Z " fill="#3474AF" transform="translate(238,360)"/>
<path d="M0 0 C0.99 0 1.98 0 3 0 C1.55746343 3.36591866 -0.33264727 5.51047079 -3 8 C-2.67 6.35 -2.34 4.7 -2 3 C-1.34 3 -0.68 3 0 3 C0 2.01 0 1.02 0 0 Z " fill="#86A7C6" transform="translate(248,351)"/>
<path d="M0 0 C0.33 0.66 0.66 1.32 1 2 C0.22265625 4.1640625 0.22265625 4.1640625 -0.9375 6.625 C-1.31777344 7.44226563 -1.69804687 8.25953125 -2.08984375 9.1015625 C-2.39019531 9.72804687 -2.69054687 10.35453125 -3 11 C-5 8 -5 8 -5 6 C-4.01 5.34 -3.02 4.68 -2 4 C-0.80767387 1.94996045 -0.80767387 1.94996045 0 0 Z " fill="#3EB9F0" transform="translate(381,225)"/>
<path d="M0 0 C0.66 0.33 1.32 0.66 2 1 C-1.01887244 4.48331435 -3.56909529 5.79157144 -8 7 C-5.42215154 4.35247996 -3.08351902 2.05567935 0 0 Z " fill="#339BDD" transform="translate(248,220)"/>
<path d="M0 0 C-1.26418246 0.69965443 -2.53665402 1.38434763 -3.8125 2.0625 C-4.52019531 2.44535156 -5.22789062 2.82820312 -5.95703125 3.22265625 C-8 4 -8 4 -11 3 C-10 1 -10 1 -7.1875 -0.1875 C-4.02095982 -0.9946573 -2.98482205 -0.91292822 0 0 Z " fill="#5AB4DD" transform="translate(240,153)"/>
<path d="M0 0 C2.6875 -0.3125 2.6875 -0.3125 5 0 C5 0.66 5 1.32 5 2 C3.03852126 3.38938077 1.03833424 4.7260411 -1 6 C-1.66 5.67 -2.32 5.34 -3 5 C-1.8125 2.5 -1.8125 2.5 0 0 Z " fill="#2C9EDF" transform="translate(347,148)"/>
<path d="M0 0 C-3.83325617 2.70582788 -6.32538149 3.32613618 -11 3 C-10 1 -10 1 -7.1875 -0.1875 C-4.14038924 -0.96421451 -2.86250637 -1.10096399 0 0 Z " fill="#8CCFE8" transform="translate(332,120)"/>
<path d="M0 0 C0.99 0.33 1.98 0.66 3 1 C3 2.98 3 4.96 3 7 C1.68 6.34 0.36 5.68 -1 5 C-0.67 3.35 -0.34 1.7 0 0 Z " fill="#377DB3" transform="translate(202,406)"/>
<path d="M0 0 C-0.3125 2.375 -0.3125 2.375 -1 5 C-1.99 5.66 -2.98 6.32 -4 7 C-4 5.02 -4 3.04 -4 1 C-2 0 -2 0 0 0 Z " fill="#6690B6" transform="translate(255,344)"/>
<path d="M0 0 C3.375 -0.125 3.375 -0.125 7 0 C7.66 0.66 8.32 1.32 9 2 C8.67 2.66 8.34 3.32 8 4 C2.25 2.25 2.25 2.25 0 0 Z " fill="#7AB0D0" transform="translate(149,283)"/>
<path d="M0 0 C0.66 0.33 1.32 0.66 2 1 C-0.23407889 4.35111834 -1.26215824 5.81553956 -5.25 6.8125 C-6.61125 6.9053125 -6.61125 6.9053125 -8 7 C-7.67 6.34 -7.34 5.68 -7 5 C-6.195625 4.87625 -5.39125 4.7525 -4.5625 4.625 C-1.84016601 4.27432836 -1.84016601 4.27432836 -0.6875 1.9375 C-0.460625 1.298125 -0.23375 0.65875 0 0 Z " fill="#3AA3DF" transform="translate(180,268)"/>
<path d="M0 0 C0.66 0.33 1.32 0.66 2 1 C-0.25 3.5625 -0.25 3.5625 -3 6 C-4.32 5.67 -5.64 5.34 -7 5 C-4.69 3.35 -2.38 1.7 0 0 Z " fill="#37A0DE" transform="translate(230,233)"/>
<path d="M0 0 C4.75 0.75 4.75 0.75 7 3 C4.36 3.66 1.72 4.32 -1 5 C-0.67 3.35 -0.34 1.7 0 0 Z " fill="#5CC5F1" transform="translate(245,216)"/>
<path d="M0 0 C-0.33 1.32 -0.66 2.64 -1 4 C-3.31 3.67 -5.62 3.34 -8 3 C-4.93882432 0.37613513 -4.26826873 0 0 0 Z " fill="#5AB6E2" transform="translate(190,169)"/>
<path d="M0 0 C-4.10457614 2.98514628 -6.97745369 3.2954439 -12 3 C-7.97869817 0.31913211 -4.73968522 -1.57989507 0 0 Z " fill="#A9DEEF" transform="translate(314,126)"/>
<path d="M0 0 C0.99 0.33 1.98 0.66 3 1 C0.36 2.98 -2.28 4.96 -5 7 C-5.66 6.67 -6.32 6.34 -7 6 C-3.25 3 -3.25 3 -1 3 C-0.67 2.01 -0.34 1.02 0 0 Z " fill="#2EA0E8" transform="translate(405,108)"/>
<path d="M0 0 C1.31602523 0.61754259 2.62773556 1.24428742 3.9375 1.875 C4.66839844 2.22304688 5.39929688 2.57109375 6.15234375 2.9296875 C8 4 8 4 9 6 C6.03 5.01 3.06 4.02 0 3 C0 2.01 0 1.02 0 0 Z " fill="#379FDA" transform="translate(191,301)"/>
<path d="M0 0 C0.33 0.66 0.66 1.32 1 2 C1.99 1.67 2.98 1.34 4 1 C3.25 2.9375 3.25 2.9375 2 5 C-0.125 5.75 -0.125 5.75 -2 6 C-1.34 4.02 -0.68 2.04 0 0 Z " fill="#0763B7" transform="translate(236,256)"/>
<path d="M0 0 C5.53846154 0.61538462 5.53846154 0.61538462 7.875 2.5625 C8.431875 3.2740625 8.431875 3.2740625 9 4 C5.30581799 4 3.22163822 2.71820705 0 1 C0 0.67 0 0.34 0 0 Z " fill="#80AFCD" transform="translate(80,247)"/>
<path d="M0 0 C0.66 0.33 1.32 0.66 2 1 C1.38125 1.2475 0.7625 1.495 0.125 1.75 C-2.35068687 3.20628639 -2.95125002 4.37812506 -4 7 C-4.99 6.34 -5.98 5.68 -7 5 C-4.69 3.35 -2.38 1.7 0 0 Z " fill="#39A2DF" transform="translate(217,242)"/>
<path d="M0 0 C0.33 0.99 0.66 1.98 1 3 C-0.175625 3.928125 -0.175625 3.928125 -1.375 4.875 C-3.96837647 6.89858661 -3.96837647 6.89858661 -6 9 C-6 6 -6 6 -4.6875 4.39453125 C-4.130625 3.87246094 -3.57375 3.35039062 -3 2.8125 C-2.443125 2.28269531 -1.88625 1.75289062 -1.3125 1.20703125 C-0.6628125 0.60955078 -0.6628125 0.60955078 0 0 Z " fill="#48AFEF" transform="translate(281,222)"/>
<path d="M0 0 C1.32 0.33 2.64 0.66 4 1 C1.69 2.65 -0.62 4.3 -3 6 C-2 2 -2 2 0 0 Z " fill="#0564B3" transform="translate(283,217)"/>
<path d="M0 0 C-1.32 0.33 -2.64 0.66 -4 1 C-4 1.66 -4 2.32 -4 3 C-6.31 3 -8.62 3 -11 3 C-7.63114177 -0.36885823 -4.54278442 -0.10095076 0 0 Z " fill="#51B3DA" transform="translate(265,144)"/>
<path d="M0 0 C-0.66 0 -1.32 0 -2 0 C-2 0.66 -2 1.32 -2 2 C-4.31 2.33 -6.62 2.66 -9 3 C-5.83583464 -0.30799106 -4.50236011 -1.35070803 0 0 Z " fill="#47AED7" transform="translate(318,126)"/>
<path d="M0 0 C0 1.98 0 3.96 0 6 C-1.65 5.67 -3.3 5.34 -5 5 C-2.74193548 0 -2.74193548 0 0 0 Z " fill="#35A5DC" transform="translate(438,104)"/>
<path d="M0 0 C1.485 0.99 1.485 0.99 3 2 C2.67 3.98 2.34 5.96 2 8 C1.34 8 0.68 8 0 8 C0 5.36 0 2.72 0 0 Z " fill="#2C7BB9" transform="translate(200,392)"/>
<path d="M0 0 C0.66 0 1.32 0 2 0 C1.75 1.875 1.75 1.875 1 4 C-1.0625 5.25 -1.0625 5.25 -3 6 C-2.42655063 3.13275314 -2.1385485 2.1385485 0 0 Z " fill="#659EBD" transform="translate(323,353)"/>
<path d="M0 0 C0.33 0.66 0.66 1.32 1 2 C0.06421005 4.35981813 -0.93347808 6.69631264 -2 9 C-2.33 9 -2.66 9 -3 9 C-3.36923077 3.46153846 -3.36923077 3.46153846 -1.5 1.125 C-1.005 0.75375 -0.51 0.3825 0 0 Z " fill="#72ADCE" transform="translate(340,325)"/>
<path d="M0 0 C0.66 0.33 1.32 0.66 2 1 C-1.5 5.875 -1.5 5.875 -6 7 C-4.02 4.69 -2.04 2.38 0 0 Z " fill="#4EADEB" transform="translate(200,292)"/>
<path d="M0 0 C2.76276177 0.52268466 5.3260876 1.10869587 8 2 C8 2.66 8 3.32 8 4 C6.35 4 4.7 4 3 4 C2.67 3.01 2.34 2.02 2 1 C1.34 0.67 0.68 0.34 0 0 Z " fill="#2B83B6" transform="translate(86,248)"/>
<path d="M0 0 C0.99 0.33 1.98 0.66 3 1 C2.67 3.31 2.34 5.62 2 8 C1.67 7.01 1.34 6.02 1 5 C0.34 5 -0.32 5 -1 5 C-0.67 3.35 -0.34 1.7 0 0 Z " fill="#67BBDD" transform="translate(56,218)"/>
<path d="M0 0 C0.66 0.33 1.32 0.66 2 1 C0.68 2.65 -0.64 4.3 -2 6 C-2.99 5.67 -3.98 5.34 -5 5 C-3.35 3.35 -1.7 1.7 0 0 Z " fill="#8CCDE5" transform="translate(62,212)"/>
<path d="M0 0 C0.66 0 1.32 0 2 0 C1.01 2.97 0.02 5.94 -1 9 C-1.33 9 -1.66 9 -2 9 C-2.25 3.375 -2.25 3.375 0 0 Z " fill="#71B1D3" transform="translate(416,154)"/>
<path d="M0 0 C-0.33 0.99 -0.66 1.98 -1 3 C-3.5625 4.1875 -3.5625 4.1875 -6 5 C-6.33 4.01 -6.66 3.02 -7 2 C-2.25 0 -2.25 0 0 0 Z " fill="#45B1DE" transform="translate(300,131)"/>
<path d="M0 0 C0.33 0 0.66 0 1 0 C1 3.3 1 6.6 1 10 C0.01 10 -0.98 10 -2 10 C-1.34 6.7 -0.68 3.4 0 0 Z " fill="#37A2D8" transform="translate(441,90)"/>
</svg>
